<svg id="svg" version="1.1" xmlns="http://www.w3.org/2000/svg" xmlns:xlink="http://www.w3.org/1999/xlink" width="400" height="151.57894736842107" viewBox="0, 0, 400,151.57894736842107"><g id="svgg"><path id="path0" d="M229.747 42.612 C 229.290 42.823,228.785 42.997,228.625 42.998 C 228.465 42.999,228.333 43.064,228.333 43.142 C 228.333 43.478,227.483 44.158,226.849 44.329 C 225.935 44.575,225.038 45.118,224.917 45.499 C 224.810 45.836,223.922 46.347,222.549 46.860 C 221.650 47.197,221.517 47.410,221.836 48.006 C 221.975 48.265,222.083 48.294,222.431 48.161 C 222.664 48.073,223.131 47.998,223.469 47.996 C 224.239 47.992,225.500 47.433,225.500 47.097 C 225.500 46.816,226.748 46.168,228.167 45.712 C 228.914 45.471,229.132 45.313,229.347 44.856 C 229.554 44.413,229.863 44.177,230.805 43.741 C 232.073 43.153,232.171 43.034,231.708 42.631 C 231.226 42.211,230.626 42.205,229.747 42.612 M219.167 49.160 L 218.417 49.468 218.917 49.665 C 219.920 50.060,221.437 49.572,220.760 49.072 C 220.346 48.767,220.089 48.781,219.167 49.160 M215.361 51.479 C 215.193 51.586,215.228 51.644,215.502 51.715 C 215.936 51.829,216.369 51.692,216.239 51.483 C 216.123 51.295,215.654 51.294,215.361 51.479 M197.917 59.788 C 196.949 59.926,197.078 60.167,198.120 60.167 C 199.304 60.167,199.818 60.032,199.472 59.813 C 199.245 59.669,198.803 59.662,197.917 59.788 M26.814 111.617 C 25.999 111.743,26.000 111.732,26.000 124.205 L 26.000 135.893 26.753 136.594 C 27.971 137.729,28.368 137.824,29.461 137.239 C 30.995 136.418,30.911 136.874,30.960 129.103 C 31.006 121.788,31.061 121.247,31.834 120.474 C 32.513 119.795,33.877 120.024,35.417 121.076 C 35.783 121.326,36.458 121.720,36.917 121.951 C 37.375 122.182,37.975 122.536,38.250 122.738 C 38.525 122.940,39.403 123.459,40.201 123.891 C 40.999 124.323,42.047 124.936,42.530 125.255 C 43.014 125.573,43.489 125.833,43.587 125.833 C 43.685 125.833,44.324 126.179,45.008 126.601 C 45.691 127.023,46.775 127.631,47.417 127.952 C 48.058 128.274,48.809 128.706,49.085 128.913 C 49.361 129.120,50.224 129.608,51.002 129.996 C 51.780 130.385,52.643 130.872,52.919 131.080 C 53.195 131.287,54.057 131.774,54.835 132.163 C 55.613 132.551,56.495 133.053,56.794 133.278 C 57.093 133.503,57.757 133.872,58.269 134.099 C 58.782 134.326,59.625 134.798,60.142 135.149 C 60.660 135.500,61.571 136.031,62.167 136.328 C 62.762 136.625,63.475 137.075,63.750 137.328 C 64.386 137.913,66.143 138.385,66.557 138.082 C 67.098 137.686,67.167 136.239,67.167 125.255 C 67.167 114.097,67.094 112.651,66.517 112.343 C 65.097 111.583,63.036 111.931,62.741 112.980 C 62.674 113.220,62.574 116.580,62.518 120.446 C 62.403 128.453,62.481 128.042,60.920 128.823 L 60.108 129.230 58.762 128.767 C 58.022 128.512,57.079 128.061,56.667 127.765 C 56.254 127.470,55.279 126.889,54.500 126.476 C 53.721 126.062,52.671 125.478,52.167 125.178 C 50.297 124.066,48.714 123.170,47.419 122.489 C 46.686 122.104,45.861 121.620,45.585 121.413 C 45.309 121.206,44.476 120.733,43.735 120.363 C 42.993 119.992,42.159 119.498,41.881 119.265 C 41.604 119.031,41.039 118.695,40.627 118.519 C 40.215 118.342,39.249 117.792,38.480 117.296 C 37.712 116.800,36.821 116.293,36.500 116.170 C 36.179 116.047,35.467 115.645,34.917 115.276 C 34.367 114.908,33.373 114.356,32.708 114.048 C 32.044 113.741,31.256 113.280,30.958 113.023 C 29.574 111.831,28.277 111.391,26.814 111.617 M166.319 112.143 C 165.899 112.385,165.304 112.796,164.998 113.056 C 164.691 113.316,163.985 113.745,163.429 114.008 C 162.872 114.272,162.005 114.799,161.502 115.178 C 160.999 115.558,160.211 116.058,159.752 116.291 C 159.292 116.523,158.617 116.957,158.250 117.254 C 157.883 117.551,157.185 117.994,156.698 118.239 C 156.210 118.483,155.348 119.025,154.781 119.442 C 153.436 120.432,153.009 120.644,151.685 120.975 L 150.583 121.250 149.022 120.629 C 148.163 120.287,147.151 119.757,146.772 119.451 C 146.393 119.145,145.438 118.545,144.649 118.118 C 143.860 117.691,143.114 117.220,142.990 117.072 C 142.867 116.923,142.303 116.582,141.738 116.315 C 141.172 116.048,140.381 115.580,139.980 115.276 C 139.578 114.971,138.629 114.400,137.871 114.007 C 137.112 113.613,136.350 113.112,136.177 112.892 C 135.890 112.527,134.276 111.833,133.713 111.833 C 132.522 111.833,131.000 113.404,131.000 114.632 C 131.000 115.164,133.025 116.986,134.123 117.443 C 134.468 117.586,135.350 118.097,136.083 118.579 C 136.817 119.060,137.800 119.648,138.268 119.885 C 138.736 120.121,139.336 120.492,139.601 120.708 C 139.866 120.924,140.646 121.388,141.333 121.739 C 143.047 122.614,143.416 122.995,143.720 124.205 C 144.166 125.972,143.297 126.734,136.436 130.589 C 135.778 130.958,134.980 131.452,134.662 131.687 C 134.344 131.922,133.505 132.444,132.798 132.848 C 131.558 133.557,131.506 133.612,131.339 134.383 C 130.996 135.973,131.073 136.148,132.510 137.078 L 133.647 137.814 135.532 136.806 C 136.568 136.252,137.792 135.512,138.250 135.163 C 138.708 134.814,139.308 134.431,139.583 134.312 C 139.858 134.194,140.683 133.710,141.417 133.236 C 142.150 132.763,143.087 132.205,143.500 131.997 C 143.912 131.789,144.505 131.423,144.817 131.184 C 146.366 129.997,149.883 128.167,150.617 128.167 C 151.757 128.167,152.771 128.512,153.573 129.175 C 154.012 129.538,154.757 130.028,155.228 130.263 C 155.698 130.499,156.233 130.831,156.417 131.001 C 156.600 131.172,157.387 131.663,158.167 132.093 C 158.946 132.523,159.838 133.098,160.150 133.371 C 160.461 133.643,161.061 134.014,161.483 134.195 C 161.905 134.376,162.630 134.810,163.094 135.160 C 163.558 135.511,164.404 136.032,164.974 136.320 C 165.544 136.608,166.298 137.103,166.650 137.422 C 167.438 138.133,167.317 138.140,168.593 137.315 C 170.031 136.384,170.235 136.042,170.107 134.765 C 169.978 133.485,170.126 133.608,165.447 130.888 C 164.788 130.505,163.950 129.976,163.583 129.712 C 163.217 129.448,162.322 128.908,161.595 128.512 C 158.540 126.847,157.552 125.736,157.850 124.300 C 158.115 123.022,158.332 122.775,159.955 121.898 C 160.759 121.463,161.634 120.929,161.900 120.711 C 162.166 120.492,162.841 120.083,163.400 119.801 C 163.959 119.519,164.867 118.971,165.417 118.584 C 165.967 118.196,166.828 117.676,167.330 117.428 C 169.826 116.192,170.642 114.998,169.986 113.543 C 169.237 111.883,167.753 111.317,166.319 112.143 M78.628 112.167 C 78.060 112.631,77.988 114.211,78.037 125.250 L 78.083 135.917 78.500 136.721 L 78.917 137.525 98.167 137.510 C 108.754 137.501,117.567 137.462,117.750 137.424 C 117.933 137.385,118.283 137.312,118.528 137.260 C 119.199 137.120,119.579 135.996,119.444 134.548 C 119.275 132.743,121.166 132.928,101.952 132.833 C 86.698 132.758,85.035 132.724,84.583 132.475 C 82.802 131.498,82.632 129.109,84.243 127.695 C 85.084 126.957,84.020 127.001,101.917 126.957 C 119.719 126.913,118.933 126.960,119.310 125.918 C 119.570 125.199,119.441 123.377,119.096 122.906 C 118.724 122.397,117.483 122.358,101.117 122.346 C 83.656 122.332,84.665 122.390,83.795 121.356 C 82.613 119.952,82.949 118.068,84.544 117.154 L 85.250 116.750 101.167 116.716 C 109.921 116.697,117.512 116.634,118.036 116.575 L 118.988 116.469 119.308 115.609 C 119.668 114.642,119.532 112.817,119.064 112.333 C 118.855 112.117,117.450 112.078,108.786 112.042 C 103.266 112.019,94.291 111.981,88.842 111.958 C 80.240 111.922,78.893 111.950,78.628 112.167 M183.434 112.250 C 182.790 112.580,182.167 113.710,182.167 114.548 C 182.167 114.941,182.772 115.747,183.464 116.275 L 184.018 116.698 191.218 116.724 C 201.296 116.760,200.324 115.599,200.329 127.603 C 200.334 137.980,200.251 137.667,203.015 137.667 C 203.353 137.667,203.744 137.421,204.409 136.792 L 205.334 135.917 205.375 127.500 L 205.417 119.083 205.833 118.340 C 206.743 116.717,207.218 116.637,215.711 116.680 C 222.125 116.713,222.202 116.701,223.071 115.517 L 223.654 114.722 223.296 113.621 C 222.714 111.830,224.737 111.996,203.000 111.954 C 184.374 111.917,184.073 111.922,183.434 112.250 M235.723 112.083 C 234.148 112.354,234.250 111.489,234.250 124.583 C 234.250 137.496,234.163 136.693,235.624 137.218 C 236.651 137.588,274.349 137.666,274.791 137.299 C 275.722 136.527,275.921 134.070,275.123 133.208 L 274.775 132.833 257.963 132.833 C 243.608 132.833,241.082 132.798,240.683 132.592 C 239.210 131.830,239.112 128.610,240.525 127.421 L 241.026 127.000 257.638 126.998 C 275.800 126.995,274.770 127.054,275.390 125.975 C 275.713 125.414,275.725 125.279,275.547 124.240 C 275.199 122.209,277.260 122.429,257.688 122.333 C 243.321 122.263,240.674 122.214,240.431 122.012 C 239.591 121.315,239.256 119.132,239.819 118.028 C 240.526 116.642,238.975 116.756,257.894 116.704 C 273.605 116.662,274.733 116.640,274.938 116.371 C 275.884 115.125,275.942 113.201,275.059 112.318 C 274.698 111.957,237.739 111.737,235.723 112.083 M377.167 111.950 C 375.137 112.300,375.143 112.286,375.015 116.505 C 374.893 120.550,374.696 121.107,373.113 121.901 L 372.147 122.384 359.041 122.347 C 344.798 122.307,345.297 122.340,344.292 121.377 C 343.440 120.561,343.167 119.443,343.167 116.772 C 343.167 112.564,342.875 111.996,340.725 112.004 C 338.488 112.012,338.525 111.791,338.557 125.088 L 338.583 135.759 339.229 136.639 L 339.875 137.519 340.813 137.405 C 342.890 137.153,343.111 136.703,343.190 132.560 C 343.261 128.809,343.399 128.456,345.159 127.518 L 346.130 127.000 359.023 127.000 L 371.917 127.000 372.948 127.488 C 374.736 128.334,374.890 128.717,374.961 132.477 C 375.038 136.497,375.173 136.829,376.971 137.413 C 377.982 137.742,378.181 137.639,379.189 136.267 L 379.667 135.617 379.651 124.933 C 379.633 112.820,379.632 112.810,378.583 112.216 C 378.217 112.009,377.842 111.848,377.750 111.859 C 377.658 111.870,377.396 111.911,377.167 111.950 M292.405 112.166 C 291.408 112.312,291.119 112.455,289.622 113.544 C 286.540 115.786,286.252 116.869,286.375 125.784 C 286.466 132.403,286.562 132.912,288.015 134.417 C 288.457 134.875,288.954 135.415,289.118 135.617 C 289.436 136.009,291.321 136.805,292.833 137.186 C 294.607 137.633,320.423 137.515,321.955 137.053 C 324.686 136.229,325.457 135.572,326.830 132.892 C 328.190 130.240,328.080 128.768,326.455 127.836 C 325.447 127.259,325.282 127.242,324.065 127.596 C 323.017 127.900,322.885 128.091,322.343 130.083 C 321.569 132.925,322.064 132.833,307.416 132.833 C 293.760 132.833,293.370 132.798,292.244 131.464 C 291.075 130.080,291.003 129.701,291.002 124.905 C 290.998 116.320,290.313 116.666,307.333 116.670 C 322.043 116.673,321.822 116.629,322.490 119.667 C 322.910 121.573,322.920 121.585,324.475 121.760 C 325.820 121.913,327.286 121.475,327.530 120.848 C 328.235 119.036,326.443 114.573,324.641 113.654 C 324.306 113.483,323.873 113.141,323.679 112.895 C 323.007 112.041,322.439 112.011,307.167 112.027 C 299.512 112.035,292.870 112.097,292.405 112.166 " stroke="none" fill="#668696" fill-rule="evenodd"></path><path id="path1" d="M0.000 75.750 L 0.000 151.500 200.000 151.500 L 400.000 151.500 400.000 75.750 L 400.000 0.000 200.000 0.000 L 0.000 0.000 0.000 75.750 M218.333 4.905 C 224.691 6.267,229.293 9.466,231.754 14.236 C 232.136 14.977,232.684 16.033,232.971 16.583 C 233.258 17.133,233.705 18.033,233.964 18.583 C 234.686 20.120,236.185 22.454,236.589 22.670 C 236.877 22.824,237.286 22.788,238.600 22.495 C 241.252 21.902,241.216 21.902,242.280 22.502 C 243.145 22.991,243.326 23.032,244.240 22.949 C 245.423 22.842,247.377 23.687,247.565 24.387 C 247.782 25.196,247.651 26.074,247.167 27.063 C 246.892 27.624,246.619 28.458,246.561 28.917 C 246.441 29.849,246.259 30.167,245.845 30.167 C 245.315 30.167,245.026 30.547,245.118 31.124 L 245.204 31.664 245.518 31.266 C 245.705 31.027,246.150 30.790,246.624 30.676 C 247.239 30.528,247.501 30.356,247.795 29.907 C 248.003 29.589,248.539 29.065,248.987 28.744 C 249.616 28.291,249.957 27.857,250.497 26.819 C 251.554 24.789,252.522 25.022,252.805 27.374 C 253.053 29.434,250.237 33.226,246.361 36.053 C 245.513 36.671,245.132 37.093,244.704 37.886 L 244.148 38.917 244.445 39.913 C 244.608 40.460,245.029 41.337,245.379 41.862 C 245.729 42.386,246.274 43.474,246.590 44.279 C 246.906 45.084,247.393 46.061,247.673 46.450 C 247.952 46.839,248.471 47.939,248.825 48.895 C 249.180 49.850,249.586 50.809,249.727 51.025 C 250.423 52.087,250.762 56.638,250.338 59.226 C 249.991 61.348,248.397 64.884,246.917 66.814 C 244.226 70.326,242.791 71.299,234.083 75.516 C 231.975 76.536,228.264 78.349,225.838 79.544 C 223.411 80.739,220.914 81.927,220.290 82.185 C 219.665 82.442,218.951 82.798,218.702 82.975 C 218.453 83.152,217.500 83.616,216.583 84.007 C 215.667 84.398,214.632 84.897,214.284 85.116 C 213.937 85.334,213.001 85.776,212.205 86.097 C 211.410 86.417,210.419 86.896,210.004 87.160 C 209.589 87.424,208.593 87.911,207.791 88.241 C 206.988 88.572,205.983 89.063,205.558 89.332 C 205.133 89.602,204.252 90.021,203.601 90.264 C 202.949 90.507,201.917 91.001,201.307 91.362 C 200.697 91.724,199.347 92.360,198.307 92.776 C 197.267 93.192,196.076 93.669,195.659 93.836 C 192.971 94.913,187.465 94.690,184.326 93.377 C 183.459 93.015,182.487 92.619,182.167 92.499 C 181.121 92.105,178.401 90.044,177.175 88.715 C 175.539 86.943,173.909 84.375,172.784 81.796 C 171.204 78.173,170.140 77.096,168.299 77.256 C 166.627 77.402,164.348 77.943,162.933 78.532 C 161.327 79.199,160.378 79.334,157.199 79.344 C 153.508 79.356,152.753 79.082,152.332 77.577 C 151.951 76.216,152.364 75.940,153.776 76.615 C 155.392 77.387,160.004 76.566,163.333 74.915 C 163.746 74.710,164.532 74.413,165.081 74.255 C 167.228 73.637,168.129 72.900,167.716 72.101 C 166.587 69.916,165.854 69.550,162.417 69.457 C 159.253 69.370,158.935 69.288,157.417 68.167 C 155.638 66.853,155.544 66.340,156.669 64.083 C 157.034 63.350,157.333 62.616,157.333 62.452 C 157.333 61.895,158.016 60.813,158.575 60.483 C 158.881 60.302,159.225 59.929,159.339 59.654 C 159.453 59.378,159.769 58.846,160.041 58.470 L 160.535 57.788 160.162 56.519 C 159.800 55.290,159.425 54.477,158.578 53.083 C 158.355 52.717,158.048 52.042,157.896 51.583 C 157.744 51.125,157.359 50.228,157.040 49.590 C 156.173 47.855,156.039 47.368,155.830 45.202 C 155.550 42.294,155.833 39.186,156.525 37.590 C 156.805 36.944,157.281 35.837,157.584 35.128 C 157.887 34.419,158.273 33.660,158.443 33.442 C 158.612 33.224,159.172 32.491,159.688 31.814 C 162.046 28.720,162.554 28.410,175.667 22.050 C 176.904 21.449,179.792 20.040,182.083 18.918 C 184.375 17.797,186.588 16.739,187.000 16.569 C 187.412 16.399,188.088 16.066,188.500 15.830 C 188.912 15.594,189.662 15.227,190.167 15.013 C 190.671 14.799,191.833 14.240,192.750 13.771 C 193.667 13.301,194.767 12.781,195.194 12.614 C 195.622 12.448,196.378 12.067,196.875 11.768 C 197.372 11.469,198.297 11.019,198.931 10.768 C 199.565 10.517,200.529 10.048,201.074 9.727 C 201.618 9.406,202.706 8.884,203.490 8.568 C 204.275 8.253,205.355 7.724,205.891 7.394 C 206.848 6.804,210.117 5.604,212.417 4.998 C 213.854 4.620,216.787 4.573,218.333 4.905 M214.333 12.498 C 212.623 12.689,211.172 13.136,210.000 13.834 C 209.404 14.188,208.317 14.714,207.583 15.002 C 206.850 15.289,205.912 15.740,205.498 16.004 C 205.085 16.268,204.373 16.643,203.915 16.837 C 203.458 17.032,200.683 18.379,197.750 19.830 C 194.817 21.282,190.692 23.309,188.583 24.336 C 186.475 25.362,183.325 26.897,181.583 27.747 C 179.842 28.597,177.292 29.828,175.917 30.483 C 174.542 31.139,173.042 31.874,172.583 32.117 C 171.322 32.787,170.702 33.097,169.320 33.749 C 165.225 35.681,162.467 40.435,163.237 44.234 C 163.600 46.022,164.745 49.098,165.407 50.061 C 165.730 50.532,166.264 51.585,166.592 52.401 C 166.921 53.218,167.368 54.120,167.586 54.406 C 167.804 54.692,168.260 55.599,168.599 56.421 C 168.939 57.244,169.399 58.164,169.623 58.466 C 170.132 59.156,171.277 61.585,171.592 62.645 C 171.975 63.934,173.103 64.552,174.222 64.084 C 175.098 63.718,177.288 63.210,179.168 62.935 C 181.043 62.662,182.228 62.314,182.681 61.903 C 183.167 61.464,184.516 61.048,186.456 60.740 C 187.692 60.544,188.543 60.314,188.956 60.063 C 190.441 59.165,190.895 58.995,192.821 58.612 C 194.521 58.275,194.995 58.111,195.735 57.601 C 196.410 57.136,196.927 56.938,197.934 56.760 C 198.658 56.631,199.887 56.287,200.667 55.995 C 202.932 55.144,204.459 54.682,206.131 54.340 C 207.600 54.040,208.500 53.666,208.500 53.356 C 208.500 53.161,209.930 52.424,210.946 52.095 C 211.526 51.906,211.944 51.637,212.224 51.269 C 212.527 50.872,213.064 50.547,214.195 50.078 C 215.050 49.722,215.818 49.320,215.901 49.183 C 216.213 48.672,216.823 48.241,217.639 47.955 C 218.102 47.793,218.879 47.314,219.365 46.892 C 219.852 46.470,220.707 45.914,221.266 45.656 C 221.825 45.398,222.408 44.995,222.561 44.760 C 222.715 44.526,223.370 44.067,224.017 43.742 C 224.663 43.416,225.617 42.804,226.136 42.381 C 226.654 41.959,227.380 41.479,227.748 41.315 C 228.116 41.151,228.670 40.748,228.979 40.418 C 229.289 40.088,229.889 39.642,230.313 39.427 C 230.736 39.212,231.226 38.878,231.401 38.685 C 231.575 38.492,232.153 38.015,232.685 37.626 C 234.139 36.561,234.139 35.294,232.684 32.914 C 232.213 32.142,231.571 30.904,231.258 30.163 C 230.946 29.422,230.467 28.463,230.195 28.033 C 229.922 27.602,229.463 26.675,229.173 25.972 C 228.884 25.269,228.420 24.351,228.142 23.931 C 227.864 23.512,227.384 22.570,227.076 21.838 C 226.554 20.602,225.352 18.433,224.368 16.955 C 222.269 13.801,218.332 12.052,214.333 12.498 M239.838 26.512 C 239.008 26.889,238.904 27.005,238.675 27.814 C 238.416 28.727,239.229 29.862,240.533 30.406 L 241.149 30.664 241.949 29.584 C 242.479 28.870,242.788 28.264,242.863 27.794 C 242.925 27.403,243.028 26.877,243.091 26.625 L 243.206 26.167 241.894 26.170 C 240.939 26.173,240.381 26.266,239.838 26.512 M236.002 43.248 C 235.285 43.848,234.290 44.350,233.133 44.696 C 232.768 44.806,232.270 45.111,232.027 45.376 C 231.509 45.937,230.679 46.393,229.192 46.932 C 228.605 47.145,228.017 47.473,227.885 47.662 C 227.582 48.095,226.712 48.540,225.244 49.014 C 224.473 49.263,223.928 49.563,223.587 49.925 C 223.202 50.332,222.693 50.584,221.496 50.958 C 220.290 51.335,219.775 51.591,219.332 52.033 C 218.912 52.452,218.356 52.742,217.333 53.077 C 216.298 53.415,215.737 53.710,215.250 54.171 C 214.795 54.602,214.162 54.951,213.255 55.269 C 212.352 55.587,211.713 55.938,211.255 56.369 C 210.866 56.736,210.115 57.181,209.471 57.428 C 208.858 57.662,208.266 57.964,208.153 58.099 C 207.884 58.423,206.079 59.412,205.312 59.654 C 204.979 59.760,204.567 60.001,204.395 60.191 C 204.011 60.616,202.481 61.402,201.549 61.653 C 201.121 61.769,200.568 62.121,200.097 62.579 C 199.493 63.165,199.057 63.406,197.981 63.746 C 197.019 64.050,196.412 64.363,195.886 64.825 C 195.407 65.247,194.719 65.620,193.936 65.884 C 193.270 66.108,192.393 66.544,191.986 66.854 C 191.580 67.163,190.910 67.556,190.498 67.727 C 190.087 67.898,189.000 68.398,188.083 68.838 C 187.167 69.278,185.479 70.065,184.333 70.587 C 179.749 72.674,179.878 72.598,178.519 74.045 L 177.954 74.647 178.424 75.782 C 180.748 81.397,183.860 85.255,186.808 86.176 C 191.170 87.539,192.603 87.232,200.750 83.187 C 203.867 81.640,207.504 79.848,208.833 79.204 C 210.162 78.561,212.900 77.230,214.917 76.247 C 216.933 75.264,220.346 73.613,222.500 72.578 C 224.654 71.543,226.792 70.505,227.250 70.270 C 227.708 70.035,229.433 69.201,231.083 68.417 C 232.733 67.633,234.383 66.831,234.750 66.635 C 235.117 66.439,236.092 65.943,236.917 65.532 C 241.551 63.225,243.579 58.783,242.399 53.520 C 241.940 51.471,241.774 51.056,240.905 49.794 C 240.606 49.360,240.204 48.534,240.012 47.960 C 239.819 47.386,239.475 46.617,239.248 46.250 C 239.021 45.883,238.553 45.006,238.209 44.301 C 237.678 43.212,237.194 42.667,236.758 42.667 C 236.725 42.667,236.385 42.928,236.002 43.248 M161.876 62.649 C 159.544 63.402,159.697 65.564,162.113 65.972 C 164.103 66.309,164.923 64.761,163.670 63.032 C 163.108 62.255,163.102 62.254,161.876 62.649 M176.935 68.047 C 175.847 68.412,175.903 68.565,177.218 68.811 C 178.268 69.007,179.605 68.457,178.995 68.080 C 178.454 67.746,177.861 67.737,176.935 68.047 M27.718 109.232 C 28.641 109.410,28.969 109.565,29.473 110.057 C 29.818 110.394,30.569 110.849,31.166 111.083 C 32.310 111.531,33.500 112.245,33.500 112.482 C 33.500 112.636,34.797 113.235,35.529 113.418 C 35.774 113.480,36.279 113.790,36.650 114.108 C 37.021 114.426,38.036 115.018,38.906 115.424 C 39.775 115.830,40.561 116.302,40.652 116.472 C 40.743 116.643,41.177 116.917,41.617 117.082 C 42.881 117.556,44.047 118.168,44.508 118.601 C 44.742 118.820,45.407 119.184,45.985 119.411 C 47.172 119.876,48.500 120.615,48.500 120.811 C 48.500 120.956,49.686 121.565,50.333 121.753 C 50.563 121.820,51.237 122.194,51.833 122.585 C 53.129 123.435,54.172 124.000,54.443 124.000 C 54.552 124.000,54.971 124.252,55.375 124.560 C 57.208 125.959,59.762 126.572,60.156 125.708 C 60.272 125.453,60.333 123.111,60.333 118.973 C 60.333 111.106,60.252 111.362,63.047 110.409 C 65.220 109.668,68.248 110.551,69.085 112.170 C 69.366 112.714,69.468 137.667,69.193 138.593 C 68.675 140.335,67.192 141.025,65.667 140.233 C 65.254 140.019,64.467 139.681,63.917 139.482 C 63.367 139.282,62.386 138.754,61.736 138.308 C 61.087 137.862,60.091 137.315,59.523 137.092 C 58.954 136.869,58.248 136.483,57.953 136.233 C 57.658 135.984,56.728 135.458,55.885 135.066 C 55.043 134.674,54.190 134.190,53.990 133.990 C 53.790 133.790,52.914 133.289,52.043 132.876 C 51.172 132.464,50.326 131.992,50.162 131.828 C 49.998 131.664,49.200 131.220,48.390 130.841 C 47.580 130.462,46.641 129.931,46.305 129.662 C 45.968 129.393,45.310 129.021,44.842 128.837 C 44.373 128.652,43.449 128.133,42.787 127.682 C 42.125 127.232,41.133 126.665,40.583 126.423 C 40.033 126.180,39.396 125.806,39.167 125.592 C 38.938 125.377,38.112 124.884,37.333 124.496 C 36.554 124.108,35.670 123.575,35.369 123.312 C 34.801 122.815,34.342 122.739,33.125 122.940 L 32.500 123.044 32.496 129.647 C 32.490 139.142,32.456 139.223,28.511 139.222 C 25.569 139.220,24.778 138.779,24.229 136.833 C 23.868 135.554,23.663 114.519,23.986 111.880 C 24.289 109.404,25.214 108.747,27.718 109.232 M169.111 110.092 C 170.532 110.832,170.887 111.165,171.313 112.157 C 171.501 112.592,171.765 113.041,171.901 113.154 C 172.767 113.873,172.757 114.974,171.875 116.103 C 171.669 116.367,171.329 116.846,171.120 117.167 C 170.868 117.552,170.305 117.983,169.459 118.438 C 168.755 118.817,167.786 119.409,167.305 119.755 C 166.824 120.100,166.118 120.521,165.737 120.690 C 165.356 120.858,164.952 121.107,164.840 121.242 C 164.728 121.377,163.939 121.864,163.086 122.323 C 160.082 123.943,159.549 125.177,161.461 126.083 C 161.982 126.329,162.645 126.730,162.935 126.974 C 163.225 127.217,164.110 127.782,164.901 128.230 C 165.692 128.677,166.384 129.113,166.437 129.200 C 166.491 129.287,167.071 129.606,167.726 129.910 C 171.420 131.624,173.492 134.527,172.178 136.148 C 171.983 136.387,171.620 136.921,171.370 137.333 C 169.708 140.080,166.953 140.340,164.254 138.004 C 163.849 137.653,163.144 137.242,162.689 137.091 C 162.233 136.939,161.535 136.530,161.138 136.180 C 160.741 135.831,159.801 135.236,159.048 134.858 C 158.296 134.479,157.602 134.024,157.507 133.847 C 157.412 133.670,156.903 133.364,156.376 133.167 C 155.399 132.804,153.833 131.891,153.833 131.685 C 153.833 131.441,152.697 130.904,151.667 130.661 C 150.412 130.365,148.592 130.887,147.583 131.832 C 147.308 132.089,146.399 132.641,145.563 133.058 C 144.727 133.474,144.000 133.926,143.948 134.062 C 143.896 134.198,143.273 134.584,142.565 134.920 C 141.856 135.256,140.859 135.840,140.348 136.217 C 139.837 136.595,139.029 137.062,138.551 137.256 C 138.074 137.450,137.360 137.907,136.965 138.271 C 135.994 139.166,134.546 139.582,132.917 139.434 C 131.454 139.301,131.105 139.053,130.226 137.520 C 129.846 136.857,129.426 136.188,129.292 136.033 C 128.575 135.200,129.410 132.666,130.648 131.917 C 130.951 131.733,131.473 131.349,131.808 131.063 C 132.143 130.776,132.942 130.266,133.583 129.929 C 134.225 129.592,135.125 129.051,135.583 128.726 C 136.042 128.401,136.792 127.964,137.250 127.754 C 137.708 127.544,138.229 127.210,138.408 127.012 C 138.586 126.813,139.149 126.427,139.658 126.152 C 141.304 125.265,141.263 125.352,140.586 124.216 C 140.046 123.309,139.875 123.165,138.540 122.488 C 137.739 122.082,136.849 121.544,136.561 121.291 C 136.273 121.039,135.748 120.713,135.394 120.566 C 135.040 120.420,134.375 120.021,133.917 119.679 C 133.458 119.337,132.500 118.730,131.786 118.329 C 129.815 117.223,128.456 114.997,129.154 114.018 C 129.330 113.771,129.670 113.078,129.911 112.478 C 130.806 110.240,133.058 109.059,134.528 110.056 C 134.844 110.271,135.623 110.646,136.259 110.890 C 136.896 111.134,137.828 111.646,138.332 112.028 C 138.835 112.410,139.772 112.963,140.415 113.257 C 141.058 113.550,141.733 113.959,141.917 114.164 C 142.100 114.369,142.962 114.896,143.833 115.333 C 144.704 115.771,145.560 116.288,145.735 116.483 C 145.911 116.677,146.586 117.094,147.235 117.409 C 147.885 117.724,148.827 118.248,149.328 118.574 C 149.829 118.900,150.398 119.167,150.593 119.167 C 151.295 119.167,152.515 118.688,153.082 118.190 C 153.401 117.910,153.967 117.590,154.340 117.478 C 154.714 117.366,155.344 116.989,155.741 116.640 C 156.485 115.985,157.754 115.275,158.522 115.083 C 158.763 115.023,159.213 114.712,159.522 114.391 C 159.831 114.071,160.637 113.552,161.314 113.238 C 161.991 112.924,162.855 112.382,163.233 112.033 C 163.644 111.655,164.245 111.308,164.722 111.174 C 165.229 111.033,165.809 110.687,166.303 110.232 C 167.272 109.340,167.633 109.322,169.111 110.092 M119.454 110.600 C 121.187 111.922,121.136 117.305,119.380 118.456 C 118.961 118.731,117.871 118.753,102.531 118.801 C 93.511 118.830,86.182 118.905,86.246 118.968 C 86.309 119.031,93.628 119.121,102.509 119.167 C 118.383 119.249,118.663 119.256,118.979 119.583 C 119.156 119.767,119.589 120.474,119.942 121.156 L 120.583 122.395 120.583 124.573 C 120.583 127.044,120.309 128.091,119.513 128.658 C 119.062 128.979,118.663 128.987,102.401 129.035 C 86.525 129.081,85.071 129.126,85.214 129.562 C 85.445 130.261,86.495 130.306,103.000 130.323 C 111.662 130.331,118.827 130.394,118.922 130.461 C 120.947 131.901,121.377 137.757,119.546 138.957 C 118.890 139.386,79.508 139.507,78.395 139.084 C 77.486 138.737,77.232 138.427,76.734 137.062 L 76.317 135.917 76.319 124.445 L 76.321 112.974 76.786 112.045 C 77.127 111.363,77.462 110.980,78.050 110.600 L 78.850 110.083 98.859 110.118 L 118.868 110.154 119.454 110.600 M223.064 110.506 C 224.974 111.123,225.476 111.809,225.516 113.853 C 225.605 118.450,225.130 118.685,215.583 118.789 C 208.750 118.863,208.750 118.863,208.061 119.260 C 207.063 119.837,207.098 119.517,207.000 128.750 C 206.906 137.635,206.896 137.749,206.143 138.447 C 205.528 139.017,204.909 139.176,202.927 139.270 C 199.031 139.457,198.968 139.276,199.006 128.083 C 199.020 124.050,199.024 120.552,199.016 120.309 C 199.004 119.972,198.810 119.746,198.194 119.351 L 197.387 118.833 190.852 118.833 C 180.941 118.833,180.167 118.482,180.167 113.986 C 180.167 111.925,180.811 111.059,182.791 110.461 L 184.042 110.083 203.008 110.119 C 221.804 110.154,221.984 110.157,223.064 110.506 M275.307 110.425 C 278.292 111.806,278.474 116.846,275.595 118.387 L 274.917 118.750 257.958 118.801 C 248.009 118.831,241.000 118.914,241.000 119.003 C 241.000 119.091,247.940 119.173,257.792 119.202 C 269.324 119.235,274.677 119.306,274.884 119.428 C 275.220 119.627,276.223 120.980,276.988 122.264 C 278.008 123.976,277.778 126.435,276.458 127.939 C 275.463 129.072,276.674 128.999,258.717 129.012 C 241.014 129.026,240.886 129.031,240.975 129.668 C 241.007 129.896,241.069 130.121,241.113 130.167 C 241.158 130.212,248.797 130.287,258.090 130.333 L 274.985 130.417 275.868 131.401 C 277.533 133.260,277.583 133.363,277.581 134.979 C 277.578 137.240,276.869 138.541,275.349 139.078 C 274.570 139.352,237.429 139.452,235.292 139.186 C 234.230 139.053,233.548 138.641,233.167 137.902 C 232.698 136.993,232.710 112.693,233.179 111.724 C 233.585 110.886,234.421 110.365,235.639 110.190 C 237.572 109.914,274.677 110.134,275.307 110.425 M322.220 110.687 C 325.135 111.417,325.721 111.801,327.797 114.340 C 329.240 116.104,329.853 120.318,328.917 122.024 C 327.657 124.317,326.443 125.019,324.328 124.679 C 322.872 124.444,322.007 123.342,321.408 120.954 C 321.137 119.877,321.102 119.829,320.234 119.339 L 319.338 118.833 307.309 118.833 L 295.280 118.833 294.405 119.494 C 293.144 120.446,293.106 120.635,293.203 125.358 C 293.296 129.858,293.219 129.619,294.760 130.236 L 295.837 130.667 307.395 130.667 L 318.954 130.667 320.045 130.172 L 321.136 129.677 321.424 128.345 C 321.979 125.777,322.445 125.413,325.159 125.425 C 328.422 125.440,329.323 126.416,329.331 129.944 C 329.336 132.475,328.847 134.035,327.688 135.181 C 327.355 135.510,326.933 136.027,326.750 136.331 C 326.552 136.659,326.045 137.079,325.502 137.367 C 324.998 137.634,324.525 137.961,324.451 138.094 C 323.838 139.188,321.907 139.326,307.167 139.325 C 291.502 139.323,291.111 139.290,288.988 137.789 C 286.908 136.318,286.029 135.264,285.576 133.695 C 285.426 133.175,285.192 132.626,285.057 132.474 C 283.859 131.134,283.782 119.614,284.954 117.130 C 285.226 116.554,285.622 115.607,285.834 115.024 C 286.145 114.171,286.377 113.841,287.029 113.326 C 287.474 112.974,288.023 112.467,288.249 112.199 C 289.686 110.491,291.454 110.284,305.667 110.163 C 319.803 110.043,319.626 110.037,322.220 110.687 M343.000 110.527 C 345.123 111.283,345.332 111.751,345.333 115.754 L 345.333 118.924 345.845 119.545 L 346.358 120.167 358.963 120.167 L 371.567 120.167 372.117 119.634 L 372.667 119.101 372.679 116.509 C 372.695 112.968,372.806 112.299,373.493 111.591 C 375.547 109.471,380.196 109.743,381.462 112.056 C 381.835 112.739,382.012 134.214,381.661 136.250 C 381.245 138.659,379.809 139.537,376.752 139.249 C 373.334 138.927,372.667 137.981,372.667 133.454 C 372.667 131.213,372.426 129.907,371.911 129.355 C 371.618 129.041,346.357 129.068,346.064 129.383 C 345.612 129.868,345.446 130.894,345.344 133.833 C 345.192 138.248,344.791 138.851,341.778 139.196 C 338.371 139.587,336.909 138.712,336.494 136.032 C 336.169 133.941,336.344 112.715,336.691 112.083 C 337.635 110.363,340.532 109.649,343.000 110.527 " stroke="none" fill="#ffffff" fill-rule="evenodd"></path><path id="path2" d="M212.417 4.998 C 210.117 5.604,206.848 6.804,205.891 7.394 C 205.355 7.724,204.275 8.253,203.490 8.568 C 202.706 8.884,201.618 9.406,201.074 9.727 C 200.529 10.048,199.565 10.517,198.931 10.768 C 198.297 11.019,197.372 11.469,196.875 11.768 C 196.378 12.067,195.622 12.448,195.194 12.614 C 194.767 12.781,193.667 13.301,192.750 13.771 C 191.833 14.240,190.671 14.799,190.167 15.013 C 189.662 15.227,188.912 15.594,188.500 15.830 C 188.088 16.066,187.412 16.399,187.000 16.569 C 186.588 16.739,184.375 17.797,182.083 18.918 C 179.792 20.040,176.904 21.449,175.667 22.050 C 162.554 28.410,162.046 28.720,159.688 31.814 C 159.172 32.491,158.612 33.224,158.443 33.442 C 158.273 33.660,157.887 34.419,157.584 35.128 C 157.281 35.837,156.805 36.944,156.525 37.590 C 155.833 39.186,155.550 42.294,155.830 45.202 C 156.039 47.368,156.173 47.856,157.041 49.590 C 157.360 50.228,157.716 51.050,157.833 51.417 C 158.051 52.102,158.543 53.079,159.257 54.250 C 159.481 54.617,159.854 55.534,160.086 56.289 C 160.326 57.066,160.677 57.825,160.896 58.039 C 161.532 58.661,162.378 59.960,162.265 60.143 C 162.072 60.455,162.690 62.301,163.016 62.386 C 163.422 62.492,164.333 63.956,164.333 64.501 C 164.333 65.793,167.370 66.386,170.020 65.610 C 170.957 65.337,172.000 64.512,172.000 64.046 C 172.000 63.305,170.367 59.473,169.623 58.466 C 169.399 58.164,168.939 57.244,168.599 56.421 C 168.260 55.599,167.804 54.692,167.586 54.406 C 167.368 54.120,166.921 53.218,166.592 52.401 C 166.264 51.585,165.730 50.532,165.407 50.061 C 164.745 49.098,163.600 46.022,163.237 44.234 C 162.467 40.434,165.227 35.677,169.320 33.750 C 170.015 33.423,170.958 32.957,171.417 32.714 C 172.833 31.965,173.336 31.715,175.917 30.484 C 177.292 29.828,179.842 28.597,181.583 27.747 C 183.325 26.897,186.475 25.362,188.583 24.336 C 190.692 23.309,194.817 21.282,197.750 19.830 C 200.683 18.379,203.458 17.032,203.915 16.837 C 204.373 16.643,205.085 16.268,205.498 16.004 C 205.912 15.740,206.850 15.289,207.583 15.002 C 208.317 14.714,209.404 14.188,210.000 13.833 C 214.669 11.052,221.416 12.519,224.368 16.955 C 225.352 18.433,226.554 20.602,227.076 21.838 C 227.384 22.570,227.864 23.512,228.142 23.931 C 228.420 24.351,228.884 25.269,229.173 25.972 C 229.463 26.675,229.922 27.602,230.195 28.033 C 230.467 28.463,230.942 29.413,231.250 30.142 C 231.557 30.872,232.227 32.162,232.738 33.009 C 233.249 33.857,233.667 34.683,233.667 34.846 C 233.667 35.371,234.494 35.872,235.154 35.748 C 238.018 35.210,240.908 31.063,239.401 29.654 C 238.853 29.142,238.476 28.424,238.593 28.118 C 238.675 27.905,237.788 26.033,236.879 24.500 C 236.689 24.179,236.362 23.429,236.153 22.833 C 235.943 22.238,235.444 21.225,235.043 20.583 C 234.642 19.942,234.150 19.042,233.950 18.583 C 233.749 18.125,233.331 17.262,233.021 16.667 C 232.711 16.071,232.142 14.977,231.758 14.236 C 228.346 7.661,219.091 3.241,212.417 4.998 M242.101 38.638 C 241.811 39.098,241.402 39.418,240.631 39.786 C 240.044 40.066,239.207 40.604,238.772 40.981 C 238.336 41.358,237.919 41.667,237.845 41.667 C 237.131 41.667,237.834 43.961,239.249 46.250 C 239.476 46.617,239.819 47.386,240.012 47.960 C 240.204 48.534,240.606 49.360,240.905 49.794 C 242.956 52.776,243.350 57.842,241.773 60.955 C 241.025 62.431,238.649 64.670,236.917 65.532 C 236.092 65.943,235.117 66.439,234.750 66.635 C 234.383 66.831,232.733 67.633,231.083 68.417 C 229.433 69.201,227.708 70.035,227.250 70.270 C 226.792 70.505,224.654 71.543,222.500 72.578 C 220.346 73.613,216.933 75.264,214.917 76.247 C 212.900 77.230,210.162 78.561,208.833 79.204 C 207.504 79.848,203.867 81.640,200.750 83.187 C 192.603 87.232,191.170 87.539,186.808 86.176 C 183.853 85.253,180.676 81.305,178.419 75.750 C 177.423 73.297,176.002 72.824,173.903 74.249 C 173.349 74.624,171.811 75.164,171.152 75.214 C 170.815 75.239,170.411 76.436,170.472 77.229 C 170.492 77.496,170.904 78.359,171.386 79.148 C 171.869 79.938,172.506 81.140,172.802 81.820 C 173.921 84.396,175.534 86.938,177.175 88.715 C 178.401 90.044,181.121 92.105,182.167 92.499 C 182.487 92.619,183.459 93.015,184.326 93.377 C 187.465 94.690,192.971 94.913,195.659 93.836 C 196.076 93.669,197.267 93.192,198.307 92.776 C 199.347 92.360,200.697 91.724,201.307 91.362 C 201.917 91.001,202.949 90.507,203.601 90.264 C 204.252 90.021,205.133 89.602,205.558 89.332 C 205.983 89.063,206.988 88.572,207.791 88.241 C 208.593 87.911,209.589 87.424,210.004 87.160 C 210.419 86.896,211.410 86.417,212.205 86.097 C 213.001 85.776,213.937 85.334,214.284 85.116 C 214.632 84.897,215.667 84.398,216.583 84.007 C 217.500 83.616,218.453 83.152,218.702 82.975 C 218.951 82.798,219.665 82.442,220.290 82.185 C 220.914 81.927,223.411 80.739,225.838 79.544 C 228.264 78.349,231.975 76.536,234.083 75.516 C 242.791 71.299,244.226 70.326,246.917 66.814 C 248.397 64.884,249.991 61.348,250.338 59.226 C 250.762 56.638,250.423 52.087,249.727 51.025 C 249.586 50.809,249.176 49.840,248.816 48.871 C 248.457 47.903,247.961 46.845,247.714 46.522 C 247.468 46.198,246.958 45.180,246.582 44.258 C 246.206 43.337,245.663 42.259,245.376 41.863 C 245.088 41.468,244.692 40.643,244.495 40.030 C 243.870 38.087,242.831 37.482,242.101 38.638 M172.477 67.578 C 172.434 67.621,171.766 67.769,170.991 67.907 C 170.217 68.045,169.096 68.256,168.500 68.377 L 167.417 68.596 167.120 69.484 C 166.688 70.777,167.042 71.457,168.700 72.521 C 169.630 73.118,170.189 73.165,170.737 72.693 C 170.985 72.479,171.025 72.473,170.913 72.667 C 170.799 72.866,170.818 72.879,171.010 72.732 C 171.142 72.631,171.775 72.412,172.417 72.247 C 174.174 71.795,174.595 71.216,174.707 69.095 C 174.763 68.020,173.140 66.915,172.477 67.578 " stroke="none" fill="#d2d39a" fill-rule="evenodd"></path><path id="path3" d="M240.796 32.593 C 240.662 32.727,240.845 33.333,241.019 33.333 C 241.100 33.333,241.167 33.146,241.167 32.917 C 241.167 32.525,241.005 32.384,240.796 32.593 M238.494 33.910 C 238.261 34.037,237.961 34.345,237.828 34.594 C 237.694 34.843,237.302 35.226,236.955 35.445 C 236.527 35.715,236.181 36.143,235.871 36.785 C 235.621 37.304,235.267 37.808,235.083 37.906 C 234.900 38.003,234.365 38.401,233.894 38.788 C 233.423 39.176,232.448 39.808,231.727 40.193 C 231.006 40.578,230.192 41.077,229.918 41.303 C 229.644 41.529,229.119 41.842,228.751 42.000 C 228.384 42.158,227.750 42.566,227.343 42.907 C 226.937 43.248,226.224 43.717,225.760 43.950 C 225.296 44.183,224.429 44.731,223.833 45.169 C 223.237 45.607,222.473 46.079,222.135 46.220 C 221.797 46.360,221.195 46.774,220.798 47.140 C 220.401 47.506,219.417 48.125,218.611 48.515 C 217.607 49.002,217.073 49.365,216.915 49.670 C 216.767 49.957,216.402 50.221,215.884 50.415 C 214.534 50.921,213.489 51.499,213.384 51.798 C 213.192 52.339,212.775 52.672,212.168 52.769 C 211.130 52.935,210.090 53.550,210.033 54.031 C 209.979 54.486,208.815 55.000,207.840 55.000 C 207.224 55.000,205.522 55.595,204.957 56.009 C 204.573 56.290,199.600 57.667,198.967 57.667 C 198.859 57.667,198.045 58.006,197.157 58.421 C 195.720 59.093,194.745 59.377,192.624 59.741 C 192.124 59.827,191.952 59.957,191.772 60.383 C 191.339 61.406,191.047 61.530,188.730 61.681 C 185.161 61.912,184.762 62.335,187.576 62.905 C 189.152 63.224,189.570 63.468,189.961 64.296 L 190.254 64.917 191.484 64.856 C 192.783 64.793,193.397 64.574,194.750 63.695 C 195.208 63.397,195.771 63.112,196.000 63.062 C 197.165 62.806,198.047 62.421,198.992 61.755 C 199.566 61.351,200.404 60.888,200.853 60.727 C 201.303 60.565,202.000 60.160,202.403 59.828 C 202.806 59.495,203.773 58.982,204.553 58.688 C 205.605 58.291,206.078 58.013,206.384 57.612 C 206.704 57.192,207.106 56.968,208.190 56.607 C 209.874 56.046,210.122 55.878,210.194 55.242 C 210.243 54.812,210.323 54.744,210.833 54.706 C 212.211 54.602,214.083 53.859,214.244 53.353 C 214.349 53.021,214.472 52.965,216.500 52.319 C 217.253 52.079,217.982 51.714,218.333 51.401 C 218.654 51.114,219.217 50.789,219.583 50.678 C 220.954 50.261,222.101 49.756,222.667 49.320 C 222.987 49.072,223.550 48.777,223.917 48.663 C 224.836 48.378,226.514 47.542,226.917 47.167 C 227.100 46.997,227.737 46.651,228.333 46.398 C 229.494 45.907,230.108 45.536,230.941 44.822 C 231.230 44.576,231.980 44.131,232.608 43.835 C 233.236 43.538,234.012 43.013,234.333 42.667 C 234.989 41.959,235.798 41.669,237.115 41.668 C 237.888 41.667,238.064 41.594,238.772 40.981 C 239.207 40.604,240.043 40.067,240.630 39.787 C 241.216 39.507,241.818 39.084,241.968 38.847 C 242.117 38.610,242.561 38.111,242.953 37.738 C 244.055 36.691,243.807 36.127,242.156 35.928 C 241.149 35.808,240.828 35.492,240.593 34.392 C 240.436 33.658,239.396 33.419,238.494 33.910 M231.708 42.631 C 232.171 43.034,232.073 43.153,230.805 43.741 C 229.863 44.177,229.554 44.413,229.347 44.856 C 229.132 45.313,228.914 45.471,228.167 45.712 C 226.748 46.168,225.500 46.816,225.500 47.097 C 225.500 47.433,224.239 47.992,223.469 47.996 C 223.131 47.998,222.664 48.073,222.431 48.161 C 222.083 48.294,221.975 48.265,221.836 48.006 C 221.517 47.410,221.650 47.197,222.549 46.860 C 223.922 46.347,224.810 45.836,224.917 45.499 C 225.038 45.118,225.935 44.575,226.849 44.329 C 227.483 44.158,228.333 43.478,228.333 43.142 C 228.333 43.064,228.465 42.999,228.625 42.998 C 228.785 42.997,229.290 42.823,229.747 42.612 C 230.626 42.205,231.226 42.211,231.708 42.631 M220.760 49.072 C 221.437 49.572,219.920 50.060,218.917 49.665 L 218.417 49.468 219.167 49.160 C 220.089 48.781,220.346 48.767,220.760 49.072 M216.239 51.483 C 216.369 51.692,215.936 51.829,215.502 51.715 C 215.228 51.644,215.193 51.586,215.361 51.479 C 215.654 51.294,216.123 51.295,216.239 51.483 M160.680 59.517 C 160.037 60.387,160.616 61.178,161.565 60.725 C 162.275 60.386,162.421 60.075,162.097 59.581 C 161.711 58.992,161.089 58.964,160.680 59.517 M199.472 59.813 C 199.650 59.925,199.638 59.975,199.417 60.060 C 198.974 60.230,197.078 60.188,197.258 60.013 C 197.543 59.736,199.126 59.593,199.472 59.813 M158.680 61.901 C 158.532 62.080,158.538 62.263,158.708 62.679 L 158.931 63.224 159.289 62.659 C 159.772 61.895,159.237 61.229,158.680 61.901 M180.555 63.976 C 178.454 64.195,179.326 64.581,181.670 64.469 C 183.022 64.404,183.514 64.292,183.316 64.094 C 183.165 63.943,181.541 63.873,180.555 63.976 M187.679 65.927 C 186.968 66.236,187.169 66.504,188.139 66.543 C 188.958 66.576,189.328 66.312,189.006 65.924 C 188.743 65.606,188.417 65.607,187.679 65.927 M168.833 66.100 C 168.256 66.346,167.505 67.320,167.251 68.150 C 167.117 68.589,168.199 68.606,169.537 68.187 C 169.837 68.093,170.796 67.892,171.667 67.739 C 172.619 67.573,173.383 67.344,173.583 67.165 C 173.767 67.002,174.164 66.720,174.467 66.539 L 175.017 66.210 173.752 66.022 C 171.966 65.756,169.548 65.794,168.833 66.100 M172.703 72.158 C 172.126 72.322,171.636 72.485,171.612 72.520 C 171.588 72.555,171.179 73.044,170.701 73.606 C 170.224 74.168,169.833 74.669,169.833 74.718 C 169.833 74.857,171.053 75.240,171.333 75.188 C 172.206 75.028,173.398 74.591,173.906 74.246 C 174.233 74.025,174.856 73.740,175.292 73.614 C 176.244 73.338,176.754 72.678,176.332 72.267 C 175.925 71.870,173.926 71.810,172.703 72.158 M25.969 110.375 C 25.196 110.992,25.167 111.487,25.167 124.051 L 25.167 135.875 25.600 136.841 C 26.060 137.867,26.270 138.017,27.667 138.323 C 28.759 138.563,30.422 138.235,30.846 137.696 C 31.592 136.748,31.667 135.984,31.667 129.309 C 31.667 122.866,31.801 121.515,32.483 121.094 C 32.858 120.862,35.551 122.077,38.083 123.619 C 38.542 123.899,39.854 124.672,41.000 125.337 C 42.146 126.003,43.496 126.790,44.000 127.086 C 44.504 127.381,45.517 127.948,46.250 128.345 C 46.983 128.742,47.958 129.302,48.417 129.589 C 48.875 129.875,49.395 130.163,49.573 130.229 C 49.751 130.294,50.576 130.744,51.406 131.230 C 54.238 132.884,55.416 133.551,57.250 134.538 C 58.258 135.080,59.196 135.623,59.333 135.744 C 59.471 135.864,60.218 136.281,60.995 136.668 C 61.771 137.056,62.729 137.620,63.124 137.922 C 64.749 139.163,66.567 139.380,67.476 138.441 L 68.030 137.869 68.029 125.726 C 68.029 119.048,67.975 113.358,67.909 113.083 C 67.521 111.458,64.976 110.650,63.116 111.560 C 61.474 112.363,61.596 111.768,61.488 119.476 C 61.384 126.867,61.337 127.254,60.472 127.801 L 59.952 128.131 58.781 127.732 C 58.137 127.513,57.492 127.232,57.347 127.106 C 57.202 126.981,56.333 126.463,55.417 125.955 C 53.659 124.980,51.345 123.673,48.375 121.976 C 47.390 121.413,45.944 120.605,45.162 120.180 C 44.380 119.756,43.517 119.251,43.245 119.058 C 42.973 118.866,42.188 118.428,41.500 118.086 C 40.813 117.744,40.025 117.297,39.750 117.093 C 39.475 116.889,38.575 116.360,37.750 115.917 C 36.925 115.473,36.041 114.967,35.786 114.790 C 35.532 114.614,34.744 114.185,34.036 113.837 C 33.329 113.488,32.300 112.895,31.750 112.519 C 31.200 112.142,30.692 111.834,30.622 111.834 C 30.552 111.834,30.012 111.540,29.422 111.182 C 28.009 110.324,26.481 109.967,25.969 110.375 M165.868 111.598 C 165.017 112.090,164.079 112.674,163.785 112.895 C 163.491 113.116,162.792 113.525,162.233 113.805 C 161.674 114.084,160.977 114.514,160.685 114.760 C 160.393 115.006,159.598 115.517,158.919 115.895 C 157.451 116.714,155.530 117.907,153.902 119.012 C 151.560 120.601,150.060 120.563,147.518 118.847 C 146.475 118.144,144.553 116.976,142.667 115.899 C 141.979 115.507,141.117 114.965,140.750 114.695 C 140.383 114.425,139.551 113.938,138.901 113.613 C 138.250 113.288,137.500 112.842,137.234 112.622 C 135.069 110.835,132.356 110.590,131.257 112.083 C 129.524 114.437,130.153 116.269,133.256 117.909 C 133.711 118.149,134.683 118.722,135.417 119.182 C 137.240 120.326,138.763 121.251,139.716 121.794 C 141.817 122.992,142.066 123.212,142.469 124.227 C 142.970 125.490,142.449 126.025,138.370 128.435 C 130.667 132.987,130.542 133.085,130.391 134.696 C 130.235 136.369,131.097 137.700,132.732 138.312 C 133.857 138.733,134.426 138.583,136.437 137.335 C 137.159 136.886,138.313 136.169,139.000 135.742 C 140.614 134.739,142.633 133.524,144.000 132.733 C 144.596 132.388,145.529 131.807,146.075 131.441 C 146.620 131.075,147.854 130.386,148.818 129.910 L 150.569 129.043 151.620 129.344 C 152.236 129.520,153.292 130.046,154.171 130.614 C 154.996 131.147,156.139 131.851,156.710 132.178 C 157.629 132.703,158.676 133.361,161.750 135.346 C 162.208 135.642,163.183 136.219,163.917 136.630 C 164.650 137.040,165.466 137.557,165.731 137.779 C 167.188 139.003,168.666 138.864,169.973 137.381 C 172.251 134.799,171.312 133.119,165.958 130.200 C 165.430 129.912,164.568 129.385,164.041 129.029 C 163.514 128.672,162.466 128.018,161.711 127.575 C 160.293 126.743,158.667 125.439,158.667 125.133 C 158.667 124.292,159.563 123.043,160.549 122.509 C 161.118 122.202,161.934 121.703,162.363 121.401 C 162.792 121.098,163.542 120.651,164.030 120.406 C 164.518 120.161,165.367 119.645,165.917 119.260 C 166.467 118.876,167.442 118.278,168.083 117.933 C 171.131 116.292,171.778 114.599,170.229 112.316 C 169.822 111.716,169.581 111.563,168.166 111.001 L 167.415 110.704 165.868 111.598 M78.162 111.818 L 77.534 112.478 77.420 114.364 C 77.358 115.401,77.332 120.712,77.362 126.167 C 77.424 136.958,77.459 137.344,78.448 138.094 C 78.985 138.501,118.854 138.438,119.223 138.030 C 119.925 137.254,120.271 134.175,119.767 133.200 C 119.138 131.984,120.760 132.093,101.968 132.000 L 85.137 131.917 84.820 131.525 C 83.908 130.399,83.917 129.213,84.842 128.435 L 85.359 128.000 101.304 127.984 C 120.062 127.964,118.943 128.030,119.500 126.917 C 120.025 125.866,120.091 123.441,119.618 122.552 C 119.018 121.424,120.244 121.501,102.671 121.488 C 88.084 121.477,85.195 121.418,84.902 121.125 C 84.846 121.068,84.625 120.540,84.411 119.950 L 84.022 118.878 84.603 118.314 L 85.185 117.750 102.005 117.667 L 118.824 117.583 119.179 117.229 C 120.331 116.076,120.323 112.630,119.165 111.581 C 118.804 111.255,118.494 111.249,98.794 111.204 L 78.790 111.158 78.162 111.818 M183.265 111.426 C 180.704 112.374,180.511 115.929,182.953 117.176 L 183.750 117.583 191.083 117.667 C 199.045 117.757,198.926 117.742,199.457 118.713 C 199.725 119.203,199.752 119.976,199.778 127.618 C 199.813 138.284,199.801 138.226,202.092 138.426 C 203.955 138.588,205.104 138.154,205.657 137.080 L 206.083 136.250 206.171 127.833 C 206.263 118.945,206.265 118.924,207.079 118.167 L 207.526 117.750 214.916 117.667 L 222.305 117.583 223.015 117.083 C 225.078 115.630,225.026 112.744,222.917 111.609 L 222.250 111.250 203.083 111.218 C 186.712 111.190,183.822 111.220,183.265 111.426 M235.344 111.328 C 233.472 111.630,233.452 111.788,233.530 126.167 L 233.583 136.083 233.969 137.038 C 234.316 137.898,234.420 138.010,235.011 138.170 C 236.201 138.490,274.758 138.390,275.254 138.065 C 275.862 137.667,276.333 136.215,276.333 134.739 L 276.333 133.491 275.588 132.746 L 274.842 132.000 257.947 132.000 C 238.771 132.000,240.674 132.159,240.323 130.526 C 240.107 129.519,240.184 129.069,240.675 128.444 L 241.024 128.000 257.840 128.000 L 274.655 128.000 275.236 127.490 C 276.476 126.401,276.748 124.063,275.810 122.545 C 275.115 121.421,276.477 121.500,257.883 121.500 L 241.008 121.500 240.770 121.125 C 240.567 120.804,240.167 119.286,240.167 118.838 C 240.167 118.758,240.361 118.461,240.598 118.179 L 241.030 117.667 257.912 117.667 L 274.795 117.667 275.376 117.023 C 276.766 115.485,276.804 112.905,275.455 111.750 L 274.773 111.167 255.428 111.188 C 244.789 111.199,235.751 111.262,235.344 111.328 M293.167 111.351 C 289.206 111.766,286.652 114.127,285.809 118.154 C 285.304 120.568,285.420 130.285,285.977 132.142 C 286.927 135.314,289.546 137.615,292.833 138.166 C 294.876 138.507,321.408 138.316,322.373 137.952 C 325.807 136.658,328.096 133.778,328.428 130.333 C 328.695 127.561,327.148 126.152,324.250 126.529 C 322.998 126.692,322.640 127.064,322.146 128.714 C 321.112 132.166,322.254 131.904,307.917 131.970 C 293.650 132.035,293.910 132.064,292.690 130.279 C 291.341 128.305,291.736 119.531,293.223 118.442 C 294.235 117.700,294.839 117.667,307.270 117.667 C 321.988 117.667,321.283 117.554,321.920 120.013 C 322.552 122.454,323.656 123.073,326.367 122.510 C 330.855 121.579,327.704 112.997,322.333 111.524 C 321.265 111.231,295.754 111.079,293.167 111.351 M339.250 111.502 C 337.421 112.430,337.527 111.606,337.515 125.000 L 337.506 135.750 337.961 136.650 C 338.629 137.971,339.076 138.239,340.720 138.305 C 343.320 138.411,344.167 137.225,344.167 133.478 C 344.167 129.991,344.505 128.946,345.867 128.235 C 346.669 127.816,371.471 127.893,372.298 128.317 C 373.775 129.075,373.982 129.688,373.993 133.348 C 374.004 136.998,374.568 138.012,376.759 138.323 C 378.617 138.586,379.682 138.020,380.329 136.428 C 380.824 135.207,380.796 113.226,380.298 112.466 C 379.462 111.190,376.814 110.825,375.211 111.764 C 374.152 112.384,374.109 112.544,374.036 116.083 C 373.963 119.638,373.869 119.947,372.561 120.945 L 371.943 121.417 359.064 121.461 L 346.185 121.506 345.586 120.980 C 344.330 119.878,344.206 119.453,344.131 116.000 C 344.088 114.023,343.992 112.784,343.862 112.547 C 343.263 111.449,340.562 110.837,339.250 111.502 M29.429 112.028 C 29.972 112.319,30.660 112.767,30.958 113.023 C 31.256 113.280,32.044 113.741,32.708 114.048 C 33.373 114.356,34.367 114.908,34.917 115.276 C 35.467 115.645,36.179 116.047,36.500 116.170 C 36.821 116.293,37.712 116.800,38.480 117.296 C 39.249 117.792,40.215 118.342,40.627 118.519 C 41.039 118.695,41.604 119.031,41.881 119.265 C 42.159 119.498,42.993 119.992,43.735 120.363 C 44.476 120.733,45.309 121.206,45.585 121.413 C 45.861 121.620,46.686 122.104,47.419 122.489 C 48.714 123.170,50.297 124.066,52.167 125.178 C 52.671 125.478,53.721 126.062,54.500 126.476 C 55.279 126.889,56.254 127.470,56.667 127.765 C 57.079 128.061,58.022 128.512,58.762 128.767 L 60.108 129.230 60.920 128.823 C 62.481 128.042,62.403 128.453,62.518 120.446 C 62.574 116.580,62.674 113.220,62.741 112.980 C 63.036 111.931,65.097 111.583,66.517 112.343 C 67.094 112.651,67.167 114.097,67.167 125.255 C 67.167 136.239,67.098 137.686,66.557 138.082 C 66.143 138.385,64.386 137.913,63.750 137.328 C 63.475 137.075,62.762 136.625,62.167 136.328 C 61.571 136.031,60.660 135.500,60.142 135.149 C 59.625 134.798,58.782 134.326,58.269 134.099 C 57.757 133.872,57.093 133.503,56.794 133.278 C 56.495 133.053,55.613 132.551,54.835 132.163 C 54.057 131.774,53.195 131.287,52.919 131.080 C 52.643 130.872,51.780 130.385,51.002 129.996 C 50.224 129.608,49.361 129.120,49.085 128.913 C 48.809 128.706,48.058 128.274,47.417 127.952 C 46.775 127.631,45.691 127.023,45.008 126.601 C 44.324 126.179,43.685 125.833,43.587 125.833 C 43.489 125.833,43.014 125.573,42.530 125.255 C 42.047 124.936,40.999 124.323,40.201 123.891 C 39.403 123.459,38.525 122.940,38.250 122.738 C 37.975 122.536,37.375 122.182,36.917 121.951 C 36.458 121.720,35.783 121.326,35.417 121.076 C 33.877 120.024,32.513 119.795,31.834 120.474 C 31.061 121.247,31.006 121.788,30.960 129.103 C 30.911 136.874,30.995 136.418,29.461 137.239 C 28.368 137.824,27.971 137.729,26.753 136.594 L 26.000 135.893 26.000 124.205 C 26.000 111.732,25.999 111.743,26.814 111.617 C 27.972 111.438,28.473 111.517,29.429 112.028 M168.571 112.085 C 171.246 113.268,170.663 115.777,167.330 117.428 C 166.828 117.676,165.967 118.196,165.417 118.584 C 164.867 118.971,163.959 119.519,163.400 119.801 C 162.841 120.083,162.166 120.492,161.900 120.711 C 161.634 120.929,160.759 121.463,159.955 121.898 C 158.332 122.775,158.115 123.022,157.850 124.300 C 157.552 125.736,158.540 126.847,161.595 128.512 C 162.322 128.908,163.217 129.448,163.583 129.712 C 163.950 129.976,164.788 130.505,165.447 130.888 C 170.126 133.608,169.978 133.485,170.107 134.765 C 170.235 136.042,170.031 136.384,168.593 137.315 C 167.317 138.140,167.438 138.133,166.650 137.422 C 166.298 137.103,165.544 136.608,164.974 136.320 C 164.404 136.032,163.558 135.511,163.094 135.160 C 162.630 134.810,161.905 134.376,161.483 134.195 C 161.061 134.014,160.461 133.643,160.150 133.371 C 159.838 133.098,158.946 132.523,158.167 132.093 C 157.387 131.663,156.600 131.172,156.417 131.001 C 156.233 130.831,155.698 130.499,155.228 130.263 C 154.757 130.028,154.012 129.538,153.573 129.175 C 152.771 128.512,151.757 128.167,150.617 128.167 C 149.883 128.167,146.366 129.997,144.817 131.184 C 144.505 131.423,143.912 131.789,143.500 131.997 C 143.087 132.205,142.150 132.763,141.417 133.236 C 140.683 133.710,139.858 134.194,139.583 134.312 C 139.308 134.431,138.708 134.814,138.250 135.163 C 137.792 135.512,136.568 136.252,135.532 136.806 L 133.647 137.814 132.510 137.078 C 131.073 136.148,130.996 135.973,131.339 134.383 C 131.506 133.612,131.558 133.557,132.798 132.848 C 133.505 132.444,134.344 131.922,134.662 131.687 C 134.980 131.452,135.778 130.958,136.436 130.589 C 143.297 126.734,144.166 125.972,143.720 124.205 C 143.416 122.995,143.047 122.614,141.333 121.739 C 140.646 121.388,139.866 120.924,139.601 120.708 C 139.336 120.492,138.736 120.121,138.268 119.885 C 137.800 119.648,136.817 119.060,136.083 118.579 C 135.350 118.097,134.468 117.586,134.123 117.443 C 133.025 116.986,131.000 115.164,131.000 114.632 C 131.000 113.404,132.522 111.833,133.713 111.833 C 134.276 111.833,135.890 112.527,136.177 112.892 C 136.350 113.112,137.112 113.613,137.871 114.007 C 138.629 114.400,139.578 114.971,139.980 115.276 C 140.381 115.580,141.172 116.048,141.738 116.315 C 142.303 116.582,142.867 116.923,142.990 117.072 C 143.114 117.220,143.860 117.691,144.649 118.118 C 145.438 118.545,146.393 119.145,146.772 119.451 C 147.151 119.757,148.163 120.287,149.022 120.629 L 150.583 121.250 151.685 120.975 C 153.009 120.644,153.436 120.432,154.781 119.442 C 155.348 119.025,156.210 118.483,156.698 118.239 C 157.185 117.994,157.883 117.551,158.250 117.254 C 158.617 116.957,159.292 116.523,159.752 116.291 C 160.211 116.058,160.999 115.558,161.502 115.178 C 162.005 114.799,162.872 114.272,163.429 114.008 C 163.985 113.745,164.691 113.316,164.998 113.056 C 166.595 111.701,167.281 111.514,168.571 112.085 M108.786 112.042 C 117.450 112.078,118.855 112.117,119.064 112.333 C 119.532 112.817,119.668 114.642,119.308 115.609 L 118.988 116.469 118.036 116.575 C 117.512 116.634,109.921 116.697,101.167 116.716 L 85.250 116.750 84.544 117.154 C 82.949 118.068,82.613 119.952,83.795 121.356 C 84.665 122.390,83.656 122.332,101.117 122.346 C 117.483 122.358,118.724 122.397,119.096 122.906 C 119.441 123.377,119.570 125.199,119.310 125.918 C 118.933 126.960,119.719 126.913,101.917 126.957 C 84.020 127.001,85.084 126.957,84.243 127.695 C 82.632 129.109,82.802 131.498,84.583 132.475 C 85.035 132.724,86.698 132.758,101.952 132.833 C 121.166 132.928,119.275 132.743,119.444 134.548 C 119.579 135.996,119.199 137.120,118.528 137.260 C 118.283 137.312,117.933 137.385,117.750 137.424 C 117.567 137.462,108.754 137.501,98.167 137.510 L 78.917 137.525 78.500 136.721 L 78.083 135.917 78.037 125.250 C 77.988 114.211,78.060 112.631,78.628 112.167 C 78.893 111.950,80.240 111.922,88.842 111.958 C 94.291 111.981,103.266 112.019,108.786 112.042 M222.427 112.255 C 222.838 112.467,223.009 112.737,223.296 113.621 L 223.654 114.722 223.071 115.517 C 222.202 116.701,222.125 116.713,215.711 116.680 C 207.218 116.637,206.743 116.717,205.833 118.340 L 205.417 119.083 205.375 127.500 L 205.334 135.917 204.409 136.792 C 203.744 137.421,203.353 137.667,203.015 137.667 C 200.251 137.667,200.334 137.980,200.329 127.603 C 200.324 115.599,201.296 116.760,191.218 116.724 L 184.018 116.698 183.464 116.275 C 182.184 115.299,181.988 114.732,182.476 113.417 C 183.081 111.784,181.290 111.911,203.000 111.954 C 219.901 111.987,221.971 112.019,222.427 112.255 M275.059 112.318 C 275.942 113.201,275.884 115.125,274.938 116.371 C 274.733 116.640,273.605 116.662,257.894 116.704 C 238.975 116.756,240.526 116.642,239.819 118.028 C 239.256 119.132,239.591 121.315,240.431 122.012 C 240.674 122.214,243.321 122.263,257.688 122.333 C 277.260 122.429,275.199 122.209,275.547 124.240 C 275.725 125.279,275.713 125.414,275.390 125.975 C 274.770 127.054,275.800 126.995,257.638 126.998 L 241.026 127.000 240.525 127.421 C 239.112 128.610,239.210 131.830,240.683 132.592 C 241.082 132.798,243.608 132.833,257.963 132.833 L 274.775 132.833 275.123 133.208 C 275.921 134.070,275.722 136.527,274.791 137.299 C 274.349 137.666,236.651 137.588,235.624 137.218 C 234.163 136.693,234.250 137.496,234.250 124.583 C 234.250 111.489,234.148 112.354,235.723 112.083 C 237.739 111.737,274.698 111.957,275.059 112.318 M378.583 112.216 C 379.632 112.810,379.633 112.820,379.651 124.933 L 379.667 135.617 379.189 136.267 C 378.181 137.639,377.982 137.742,376.971 137.413 C 375.173 136.829,375.038 136.497,374.961 132.477 C 374.890 128.717,374.736 128.334,372.948 127.488 L 371.917 127.000 359.023 127.000 L 346.130 127.000 345.159 127.518 C 343.399 128.456,343.261 128.809,343.190 132.560 C 343.111 136.703,342.890 137.153,340.813 137.405 L 339.875 137.519 339.229 136.639 L 338.583 135.759 338.557 125.088 C 338.525 111.791,338.488 112.012,340.725 112.004 C 342.875 111.996,343.167 112.564,343.167 116.772 C 343.167 119.443,343.440 120.561,344.292 121.377 C 345.297 122.340,344.798 122.307,359.041 122.347 L 372.147 122.384 373.113 121.901 C 374.696 121.107,374.893 120.550,375.015 116.505 C 375.147 112.184,375.155 112.169,377.750 111.859 C 377.842 111.848,378.217 112.009,378.583 112.216 M322.205 112.229 C 323.075 112.398,323.406 112.547,323.679 112.895 C 323.873 113.141,324.306 113.483,324.641 113.654 C 326.443 114.573,328.235 119.036,327.530 120.848 C 327.286 121.475,325.820 121.913,324.475 121.760 C 322.920 121.585,322.910 121.573,322.490 119.667 C 321.822 116.629,322.043 116.673,307.333 116.670 C 290.313 116.666,290.998 116.320,291.002 124.905 C 291.003 129.701,291.075 130.080,292.244 131.464 C 293.370 132.798,293.760 132.833,307.416 132.833 C 322.064 132.833,321.569 132.925,322.343 130.083 C 322.885 128.091,323.017 127.900,324.065 127.596 C 325.282 127.242,325.447 127.259,326.455 127.836 C 328.080 128.768,328.190 130.240,326.830 132.892 C 325.457 135.572,324.686 136.229,321.955 137.053 C 320.423 137.515,294.607 137.633,292.833 137.186 C 291.321 136.805,289.436 136.009,289.118 135.617 C 288.954 135.415,288.457 134.875,288.015 134.417 C 286.562 132.912,286.466 132.403,286.375 125.784 C 286.252 116.869,286.540 115.786,289.622 113.544 C 291.119 112.455,291.408 112.312,292.405 112.166 C 294.008 111.930,320.958 111.988,322.205 112.229 " stroke="none" fill="#9cacbc" fill-rule="evenodd"></path><path id="path4" d="M236.245 23.087 C 236.484 23.722,236.897 24.581,237.163 24.996 C 237.428 25.411,237.718 25.943,237.808 26.179 C 237.897 26.416,238.122 26.860,238.309 27.166 L 238.648 27.724 238.846 27.290 C 239.153 26.615,240.383 26.167,241.925 26.167 L 243.206 26.167 243.091 26.625 C 243.028 26.877,242.925 27.403,242.863 27.794 C 242.788 28.264,242.479 28.870,241.949 29.584 L 241.149 30.664 240.554 30.415 C 239.804 30.102,239.834 30.097,239.831 30.542 C 239.817 33.232,235.730 36.766,234.108 35.490 C 233.796 35.244,233.653 35.199,233.674 35.353 C 233.839 36.536,233.679 36.905,232.691 37.625 C 232.156 38.015,231.575 38.492,231.401 38.685 C 231.226 38.878,230.736 39.212,230.313 39.427 C 229.889 39.642,229.289 40.088,228.979 40.418 C 228.670 40.748,228.116 41.151,227.748 41.315 C 227.380 41.479,226.654 41.959,226.136 42.381 C 225.617 42.804,224.663 43.416,224.017 43.742 C 223.370 44.067,222.715 44.526,222.561 44.760 C 222.408 44.995,221.825 45.398,221.266 45.656 C 220.707 45.914,219.852 46.470,219.365 46.892 C 218.879 47.314,218.102 47.793,217.639 47.955 C 216.823 48.241,216.213 48.672,215.901 49.183 C 215.818 49.320,215.050 49.722,214.195 50.078 C 213.064 50.547,212.527 50.872,212.224 51.269 C 211.944 51.637,211.526 51.906,210.946 52.095 C 209.930 52.424,208.500 53.161,208.500 53.356 C 208.500 53.666,207.600 54.040,206.131 54.340 C 204.459 54.682,202.932 55.144,200.667 55.995 C 199.887 56.287,198.658 56.631,197.934 56.760 C 196.927 56.938,196.410 57.136,195.735 57.601 C 194.995 58.111,194.521 58.275,192.821 58.612 C 190.895 58.995,190.441 59.165,188.956 60.063 C 188.543 60.314,187.692 60.544,186.456 60.740 C 184.516 61.048,183.167 61.464,182.681 61.903 C 182.216 62.324,181.065 62.652,178.850 62.993 C 177.695 63.171,176.112 63.515,175.333 63.757 C 173.742 64.253,173.192 64.287,172.487 63.935 C 172.043 63.713,172.000 63.718,172.000 63.981 C 172.000 64.453,171.015 65.318,170.188 65.573 L 169.417 65.810 170.952 65.822 C 171.796 65.828,173.052 65.917,173.744 66.020 L 175.001 66.207 174.270 66.671 C 173.374 67.239,173.233 67.446,173.651 67.578 C 174.546 67.862,174.846 68.316,174.739 69.223 C 174.607 70.343,174.354 71.178,174.036 71.542 C 173.896 71.702,173.850 71.838,173.933 71.844 C 176.332 72.018,176.701 72.176,176.378 72.885 C 176.210 73.253,176.266 73.327,177.130 73.896 L 178.062 74.510 178.989 73.566 C 179.942 72.596,180.037 72.543,184.333 70.587 C 185.479 70.065,187.167 69.278,188.083 68.838 C 189.000 68.398,190.087 67.898,190.498 67.727 C 190.910 67.556,191.580 67.163,191.986 66.854 C 192.393 66.544,193.270 66.108,193.936 65.884 C 194.719 65.620,195.407 65.247,195.886 64.825 C 196.412 64.363,197.019 64.050,197.981 63.746 C 199.057 63.406,199.493 63.165,200.097 62.579 C 200.568 62.121,201.121 61.769,201.549 61.653 C 202.481 61.402,204.011 60.616,204.395 60.191 C 204.567 60.001,204.979 59.760,205.312 59.654 C 206.079 59.412,207.884 58.423,208.153 58.099 C 208.266 57.964,208.858 57.662,209.471 57.428 C 210.115 57.181,210.866 56.736,211.255 56.369 C 211.713 55.938,212.352 55.587,213.255 55.269 C 214.162 54.951,214.795 54.602,215.250 54.171 C 215.737 53.710,216.298 53.415,217.333 53.077 C 218.356 52.742,218.912 52.452,219.332 52.033 C 219.775 51.591,220.290 51.335,221.496 50.958 C 222.693 50.584,223.202 50.332,223.587 49.925 C 223.928 49.563,224.473 49.263,225.244 49.014 C 226.712 48.540,227.582 48.095,227.885 47.662 C 228.017 47.473,228.605 47.145,229.192 46.932 C 230.679 46.393,231.509 45.937,232.027 45.376 C 232.270 45.111,232.768 44.806,233.133 44.696 C 234.290 44.350,235.285 43.848,236.002 43.248 C 236.763 42.612,236.801 42.599,237.167 42.830 C 237.444 43.005,237.634 42.699,237.655 42.042 C 237.681 41.217,235.254 41.673,234.333 42.667 C 234.012 43.013,233.236 43.538,232.608 43.835 C 231.980 44.131,231.230 44.576,230.941 44.822 C 230.108 45.536,229.494 45.907,228.333 46.398 C 227.737 46.651,227.100 46.997,226.917 47.167 C 226.514 47.542,224.836 48.378,223.917 48.663 C 223.550 48.777,222.987 49.072,222.667 49.320 C 222.101 49.756,220.954 50.261,219.583 50.678 C 219.217 50.789,218.654 51.114,218.333 51.401 C 217.982 51.714,217.253 52.079,216.500 52.319 C 214.472 52.965,214.349 53.021,214.244 53.353 C 214.083 53.859,212.211 54.602,210.833 54.706 C 210.323 54.744,210.243 54.812,210.194 55.242 C 210.122 55.878,209.874 56.046,208.190 56.607 C 207.106 56.968,206.704 57.192,206.384 57.612 C 206.078 58.013,205.605 58.291,204.553 58.688 C 203.773 58.982,202.806 59.495,202.403 59.828 C 202.000 60.160,201.303 60.565,200.853 60.727 C 200.404 60.888,199.566 61.351,198.992 61.755 C 198.047 62.421,197.165 62.806,196.000 63.062 C 195.771 63.112,195.208 63.397,194.750 63.695 C 193.397 64.574,192.783 64.793,191.484 64.856 L 190.254 64.917 189.961 64.296 C 189.570 63.468,189.152 63.224,187.576 62.905 C 184.762 62.335,185.161 61.912,188.730 61.681 C 191.047 61.530,191.339 61.406,191.772 60.383 C 191.952 59.957,192.124 59.827,192.624 59.741 C 194.745 59.377,195.720 59.093,197.157 58.421 C 198.045 58.006,198.859 57.667,198.967 57.667 C 199.600 57.667,204.573 56.290,204.957 56.009 C 205.522 55.595,207.224 55.000,207.840 55.000 C 208.815 55.000,209.979 54.486,210.033 54.031 C 210.090 53.550,211.130 52.935,212.168 52.769 C 212.775 52.672,213.192 52.339,213.384 51.798 C 213.489 51.499,214.534 50.921,215.884 50.415 C 216.402 50.221,216.767 49.957,216.915 49.670 C 217.073 49.365,217.607 49.002,218.611 48.515 C 219.417 48.125,220.401 47.506,220.798 47.140 C 221.195 46.774,221.797 46.360,222.135 46.220 C 222.473 46.079,223.237 45.607,223.833 45.169 C 224.429 44.731,225.296 44.183,225.760 43.950 C 226.224 43.717,226.937 43.248,227.343 42.907 C 227.750 42.566,228.384 42.158,228.751 42.000 C 229.119 41.842,229.644 41.529,229.918 41.303 C 230.192 41.077,231.006 40.578,231.727 40.193 C 232.448 39.808,233.423 39.176,233.894 38.788 C 234.365 38.401,234.900 38.003,235.083 37.906 C 235.267 37.808,235.621 37.304,235.871 36.785 C 236.181 36.143,236.527 35.715,236.955 35.445 C 237.302 35.226,237.694 34.843,237.828 34.593 C 238.438 33.453,240.363 33.314,240.593 34.392 C 240.828 35.492,241.149 35.808,242.156 35.928 C 243.649 36.108,243.986 36.595,243.235 37.487 C 242.998 37.769,242.880 38.000,242.972 38.000 C 243.065 38.000,243.368 38.191,243.645 38.424 L 244.149 38.848 244.391 38.466 C 244.523 38.255,244.771 37.808,244.941 37.471 C 245.126 37.104,245.693 36.536,246.356 36.054 C 250.229 33.237,253.053 29.435,252.805 27.374 C 252.522 25.022,251.554 24.789,250.497 26.819 C 249.957 27.857,249.616 28.291,248.987 28.744 C 248.539 29.065,248.003 29.589,247.795 29.907 C 247.501 30.356,247.239 30.528,246.624 30.676 C 246.150 30.790,245.705 31.027,245.518 31.266 L 245.204 31.664 245.118 31.124 C 245.026 30.547,245.315 30.167,245.845 30.167 C 246.259 30.167,246.441 29.849,246.561 28.917 C 246.619 28.458,246.892 27.624,247.167 27.063 C 247.651 26.074,247.782 25.196,247.565 24.387 C 247.377 23.687,245.423 22.842,244.240 22.949 C 243.326 23.032,243.145 22.991,242.280 22.502 C 241.219 21.904,241.233 21.904,238.678 22.479 C 236.720 22.920,236.803 22.924,236.261 22.383 L 235.810 21.932 236.245 23.087 M241.167 32.917 C 241.167 33.146,241.100 33.333,241.019 33.333 C 240.845 33.333,240.662 32.727,240.796 32.593 C 241.005 32.384,241.167 32.525,241.167 32.917 M160.047 58.466 C 159.756 58.897,159.428 59.456,159.317 59.707 C 159.205 59.959,158.867 60.310,158.566 60.488 C 158.014 60.814,157.333 61.898,157.333 62.452 C 157.333 62.616,157.034 63.350,156.669 64.083 C 155.544 66.340,155.638 66.853,157.417 68.167 C 158.918 69.275,159.267 69.368,162.250 69.447 C 165.572 69.536,165.480 69.515,166.389 70.398 C 166.879 70.875,167.085 71.003,166.976 70.764 C 166.851 70.490,166.890 70.153,167.128 69.448 C 167.304 68.927,167.380 68.500,167.296 68.500 C 166.758 68.500,168.090 66.414,168.819 66.115 C 169.353 65.896,169.261 65.881,167.344 65.873 L 165.299 65.865 164.759 65.342 L 164.220 64.820 163.764 65.508 C 163.406 66.050,163.232 66.178,162.946 66.110 C 162.747 66.063,162.224 65.972,161.784 65.909 C 159.714 65.610,159.751 63.216,161.834 62.683 C 162.752 62.447,162.745 62.460,162.480 61.404 C 162.249 60.489,162.143 60.418,161.500 60.750 C 160.921 61.049,160.712 60.976,160.491 60.392 C 160.287 59.856,160.868 58.997,161.350 59.123 C 161.817 59.245,161.737 58.952,161.120 58.279 L 160.574 57.683 160.047 58.466 M159.470 61.880 C 159.599 62.036,159.550 62.247,159.289 62.659 L 158.931 63.224 158.708 62.679 C 158.389 61.897,158.974 61.283,159.470 61.880 M183.316 64.094 C 183.514 64.292,183.022 64.404,181.670 64.469 C 179.326 64.581,178.454 64.195,180.555 63.976 C 181.541 63.873,183.165 63.943,183.316 64.094 M189.006 65.924 C 189.328 66.312,188.958 66.576,188.139 66.543 C 187.169 66.504,186.968 66.236,187.679 65.927 C 188.417 65.607,188.743 65.606,189.006 65.924 M178.995 68.080 C 179.605 68.457,178.268 69.007,177.218 68.811 C 175.903 68.565,175.847 68.412,176.935 68.047 C 177.861 67.737,178.454 67.746,178.995 68.080 M167.740 72.147 C 168.127 72.896,167.172 73.653,165.081 74.255 C 164.532 74.413,163.746 74.710,163.333 74.915 C 160.004 76.566,155.392 77.387,153.776 76.615 C 152.364 75.940,151.951 76.216,152.332 77.577 C 152.753 79.082,153.508 79.356,157.199 79.344 C 160.378 79.334,161.327 79.199,162.933 78.532 C 165.722 77.372,169.186 76.910,170.064 77.580 L 170.626 78.009 170.508 77.463 C 170.437 77.137,170.482 76.596,170.619 76.121 C 170.852 75.313,170.805 75.002,170.448 74.997 C 169.740 74.988,169.789 74.679,170.660 73.675 C 171.482 72.726,171.711 72.153,171.055 72.685 C 170.807 72.886,170.789 72.883,170.913 72.667 C 171.025 72.473,170.985 72.479,170.737 72.693 C 170.136 73.212,169.649 73.144,168.539 72.387 C 167.525 71.695,167.503 71.688,167.740 72.147 M25.410 109.313 C 23.842 110.025,23.804 110.395,23.871 124.501 C 23.941 139.578,23.829 139.220,28.511 139.222 C 32.456 139.223,32.490 139.142,32.496 129.647 L 32.500 123.044 33.125 122.940 C 34.342 122.739,34.801 122.815,35.369 123.312 C 35.670 123.575,36.554 124.108,37.333 124.496 C 38.112 124.884,38.938 125.377,39.167 125.592 C 39.396 125.806,40.033 126.180,40.583 126.423 C 41.133 126.665,42.125 127.232,42.787 127.682 C 43.449 128.133,44.373 128.652,44.842 128.837 C 45.310 129.021,45.968 129.393,46.305 129.662 C 46.641 129.931,47.580 130.462,48.390 130.841 C 49.200 131.220,49.998 131.664,50.162 131.828 C 50.326 131.992,51.172 132.464,52.043 132.876 C 52.914 133.289,53.790 133.790,53.990 133.990 C 54.190 134.190,55.043 134.674,55.885 135.066 C 56.728 135.458,57.658 135.984,57.953 136.233 C 58.248 136.483,58.954 136.869,59.523 137.092 C 60.091 137.315,61.087 137.862,61.736 138.308 C 62.386 138.754,63.367 139.282,63.917 139.482 C 64.467 139.681,65.254 140.019,65.667 140.233 C 67.192 141.025,68.675 140.335,69.193 138.593 C 69.468 137.667,69.366 112.714,69.085 112.170 C 68.248 110.551,65.220 109.668,63.047 110.409 C 60.252 111.362,60.333 111.106,60.333 118.973 C 60.333 123.111,60.272 125.453,60.156 125.708 C 59.762 126.572,57.208 125.959,55.375 124.560 C 54.971 124.252,54.552 124.000,54.443 124.000 C 54.172 124.000,53.129 123.435,51.833 122.585 C 51.237 122.194,50.563 121.820,50.333 121.753 C 49.686 121.565,48.500 120.956,48.500 120.811 C 48.500 120.615,47.172 119.876,45.985 119.411 C 45.407 119.184,44.742 118.820,44.508 118.601 C 44.047 118.168,42.881 117.556,41.617 117.082 C 41.177 116.917,40.743 116.643,40.652 116.472 C 40.561 116.302,39.775 115.830,38.906 115.424 C 38.036 115.018,37.021 114.426,36.650 114.108 C 36.279 113.790,35.774 113.480,35.529 113.418 C 34.797 113.235,33.500 112.636,33.500 112.482 C 33.500 112.245,32.310 111.531,31.166 111.083 C 30.569 110.849,29.818 110.394,29.473 110.057 C 28.969 109.565,28.641 109.410,27.718 109.232 C 26.257 108.949,26.208 108.951,25.410 109.313 M166.303 110.232 C 165.809 110.687,165.229 111.033,164.722 111.174 C 164.245 111.308,163.644 111.655,163.233 112.033 C 162.855 112.382,161.991 112.924,161.314 113.238 C 160.637 113.552,159.831 114.071,159.522 114.391 C 159.213 114.712,158.763 115.023,158.522 115.083 C 157.754 115.275,156.485 115.985,155.741 116.640 C 155.344 116.989,154.714 117.366,154.340 117.478 C 153.967 117.590,153.401 117.910,153.082 118.190 C 152.515 118.688,151.295 119.167,150.593 119.167 C 150.398 119.167,149.829 118.900,149.328 118.574 C 148.827 118.248,147.885 117.724,147.235 117.409 C 146.586 117.094,145.911 116.677,145.735 116.483 C 145.560 116.288,144.704 115.771,143.833 115.333 C 142.962 114.896,142.100 114.369,141.917 114.164 C 141.733 113.959,141.058 113.550,140.415 113.257 C 139.772 112.963,138.835 112.410,138.332 112.028 C 137.828 111.646,136.896 111.134,136.259 110.890 C 135.623 110.646,134.844 110.271,134.528 110.056 C 133.058 109.059,130.806 110.240,129.911 112.478 C 129.670 113.078,129.330 113.771,129.154 114.018 C 128.456 114.997,129.815 117.223,131.786 118.329 C 132.500 118.730,133.458 119.337,133.917 119.679 C 134.375 120.021,135.040 120.420,135.394 120.566 C 135.748 120.713,136.273 121.039,136.561 121.291 C 136.849 121.544,137.739 122.082,138.540 122.488 C 139.875 123.165,140.046 123.309,140.586 124.216 C 141.263 125.352,141.304 125.265,139.658 126.152 C 139.149 126.427,138.586 126.813,138.408 127.012 C 138.229 127.210,137.708 127.544,137.250 127.754 C 136.792 127.964,136.042 128.401,135.583 128.726 C 135.125 129.051,134.225 129.592,133.583 129.929 C 132.942 130.266,132.143 130.776,131.808 131.063 C 131.473 131.349,130.951 131.733,130.648 131.917 C 129.410 132.666,128.575 135.200,129.292 136.033 C 129.426 136.188,129.846 136.857,130.226 137.520 C 131.105 139.053,131.454 139.301,132.917 139.434 C 134.546 139.582,135.994 139.166,136.965 138.271 C 137.360 137.907,138.074 137.450,138.551 137.256 C 139.029 137.062,139.837 136.595,140.348 136.217 C 140.859 135.840,141.856 135.256,142.565 134.920 C 143.273 134.584,143.896 134.198,143.948 134.062 C 144.000 133.926,144.727 133.474,145.563 133.058 C 146.399 132.641,147.308 132.089,147.583 131.832 C 148.592 130.887,150.412 130.365,151.667 130.661 C 152.697 130.904,153.833 131.441,153.833 131.685 C 153.833 131.891,155.399 132.804,156.376 133.167 C 156.903 133.364,157.412 133.670,157.507 133.847 C 157.602 134.024,158.296 134.479,159.048 134.858 C 159.801 135.236,160.741 135.831,161.138 136.180 C 161.535 136.530,162.233 136.939,162.689 137.091 C 163.144 137.242,163.849 137.653,164.254 138.004 C 166.953 140.340,169.708 140.080,171.370 137.333 C 171.620 136.921,171.983 136.387,172.178 136.148 C 173.492 134.527,171.420 131.624,167.726 129.910 C 167.071 129.606,166.491 129.287,166.437 129.200 C 166.384 129.113,165.692 128.677,164.901 128.230 C 164.110 127.782,163.225 127.217,162.935 126.974 C 162.645 126.730,161.982 126.329,161.461 126.083 C 159.549 125.177,160.082 123.943,163.086 122.323 C 163.939 121.864,164.728 121.377,164.840 121.242 C 164.952 121.107,165.356 120.858,165.737 120.690 C 166.118 120.521,166.824 120.100,167.305 119.755 C 167.786 119.409,168.755 118.817,169.459 118.438 C 170.305 117.983,170.868 117.552,171.120 117.167 C 171.329 116.846,171.669 116.367,171.875 116.103 C 172.757 114.974,172.767 113.873,171.901 113.154 C 171.765 113.041,171.501 112.592,171.313 112.157 C 170.887 111.165,170.532 110.832,169.111 110.092 C 167.633 109.322,167.272 109.340,166.303 110.232 M78.050 110.600 C 77.462 110.980,77.127 111.363,76.786 112.045 L 76.321 112.974 76.319 124.445 L 76.317 135.917 76.734 137.062 C 77.649 139.571,75.485 139.354,99.091 139.298 C 121.357 139.245,119.644 139.339,120.265 138.137 C 120.637 137.418,120.799 133.827,120.501 132.905 C 120.300 132.284,119.292 130.724,118.922 130.461 C 118.827 130.394,111.662 130.331,103.000 130.323 C 86.495 130.306,85.445 130.261,85.214 129.562 C 85.071 129.126,86.525 129.081,102.401 129.035 C 118.663 128.987,119.062 128.979,119.513 128.658 C 120.309 128.091,120.583 127.044,120.583 124.573 L 120.583 122.395 119.942 121.156 C 119.589 120.474,119.156 119.767,118.979 119.583 C 118.663 119.256,118.383 119.249,102.509 119.167 C 93.628 119.121,86.309 119.031,86.246 118.968 C 86.182 118.905,93.511 118.830,102.531 118.801 C 117.871 118.753,118.961 118.731,119.380 118.456 C 121.136 117.305,121.187 111.922,119.454 110.600 L 118.868 110.154 98.859 110.118 L 78.850 110.083 78.050 110.600 M182.791 110.461 C 180.811 111.059,180.167 111.925,180.167 113.986 C 180.167 118.482,180.941 118.833,190.852 118.833 L 197.387 118.833 198.194 119.351 C 198.810 119.746,199.004 119.972,199.016 120.309 C 199.024 120.552,199.020 124.050,199.006 128.083 C 198.968 139.276,199.031 139.457,202.927 139.270 C 204.909 139.176,205.528 139.017,206.143 138.447 C 206.896 137.749,206.906 137.635,207.000 128.750 C 207.098 119.517,207.063 119.837,208.061 119.260 C 208.750 118.863,208.750 118.863,215.583 118.789 C 223.235 118.706,223.716 118.641,224.660 117.566 C 225.888 116.167,225.823 112.171,224.555 111.174 C 223.222 110.125,223.877 110.158,203.008 110.119 L 184.042 110.083 182.791 110.461 M235.639 110.190 C 234.421 110.365,233.585 110.886,233.179 111.724 C 232.710 112.693,232.698 136.993,233.167 137.902 C 233.548 138.641,234.230 139.053,235.292 139.186 C 237.429 139.452,274.570 139.352,275.349 139.078 C 276.869 138.541,277.578 137.240,277.581 134.979 C 277.583 133.363,277.533 133.260,275.868 131.401 L 274.985 130.417 258.090 130.333 C 248.797 130.287,241.158 130.212,241.113 130.167 C 241.069 130.121,241.007 129.896,240.975 129.668 C 240.886 129.031,241.014 129.026,258.717 129.012 C 276.674 128.999,275.463 129.072,276.458 127.939 C 277.778 126.435,278.008 123.976,276.988 122.264 C 276.223 120.980,275.220 119.627,274.884 119.428 C 274.677 119.306,269.324 119.235,257.792 119.202 C 247.940 119.173,241.000 119.091,241.000 119.003 C 241.000 118.914,248.009 118.831,257.958 118.801 L 274.917 118.750 275.595 118.387 C 278.474 116.846,278.292 111.806,275.307 110.425 C 274.677 110.134,237.572 109.914,235.639 110.190 M305.667 110.163 C 291.454 110.284,289.686 110.491,288.249 112.199 C 288.023 112.467,287.474 112.974,287.029 113.326 C 286.377 113.841,286.145 114.171,285.834 115.024 C 285.622 115.607,285.226 116.554,284.954 117.130 C 283.782 119.614,283.859 131.134,285.057 132.474 C 285.192 132.626,285.426 133.175,285.576 133.695 C 286.029 135.264,286.908 136.318,288.988 137.789 C 291.111 139.290,291.502 139.323,307.167 139.325 C 321.907 139.326,323.838 139.188,324.451 138.094 C 324.525 137.961,324.998 137.634,325.502 137.367 C 326.045 137.079,326.552 136.659,326.750 136.331 C 326.933 136.027,327.355 135.510,327.688 135.181 C 328.847 134.035,329.336 132.475,329.331 129.944 C 329.323 126.416,328.422 125.440,325.159 125.425 C 322.445 125.413,321.979 125.777,321.424 128.345 L 321.136 129.677 320.045 130.172 L 318.954 130.667 307.395 130.667 L 295.837 130.667 294.760 130.236 C 293.219 129.619,293.296 129.858,293.203 125.358 C 293.106 120.635,293.144 120.446,294.405 119.494 L 295.280 118.833 307.309 118.833 L 319.338 118.833 320.234 119.339 C 321.102 119.829,321.137 119.877,321.408 120.954 C 322.007 123.342,322.872 124.444,324.328 124.679 C 326.443 125.019,327.657 124.317,328.917 122.024 C 329.853 120.318,329.240 116.104,327.797 114.340 C 324.319 110.086,323.906 110.008,305.667 110.163 M338.854 110.513 C 336.236 111.520,336.427 110.509,336.363 123.711 C 336.297 137.182,336.369 137.920,337.819 138.659 C 339.388 139.460,342.385 139.453,343.861 138.645 C 345.054 137.992,345.219 137.458,345.344 133.833 C 345.446 130.894,345.612 129.868,346.064 129.383 C 346.357 129.068,371.618 129.041,371.911 129.355 C 372.426 129.907,372.667 131.213,372.667 133.454 C 372.667 137.981,373.334 138.927,376.752 139.249 C 379.809 139.537,381.245 138.659,381.661 136.250 C 382.012 134.214,381.835 112.739,381.462 112.056 C 380.196 109.743,375.547 109.471,373.493 111.591 C 372.806 112.299,372.695 112.968,372.679 116.509 L 372.667 119.101 372.117 119.634 L 371.567 120.167 358.963 120.167 L 346.358 120.167 345.845 119.545 L 345.333 118.924 345.333 115.754 C 345.332 112.839,345.304 112.538,344.986 112.016 C 343.948 110.314,341.154 109.629,338.854 110.513 M27.501 110.349 C 27.968 110.449,28.833 110.824,29.422 111.182 C 30.012 111.540,30.552 111.834,30.622 111.834 C 30.692 111.834,31.200 112.142,31.750 112.519 C 32.300 112.895,33.329 113.488,34.036 113.837 C 34.744 114.185,35.532 114.614,35.786 114.790 C 36.041 114.967,36.925 115.473,37.750 115.917 C 38.575 116.360,39.475 116.889,39.750 117.093 C 40.025 117.297,40.813 117.744,41.500 118.086 C 42.188 118.428,42.973 118.866,43.245 119.058 C 43.517 119.251,44.380 119.756,45.162 120.180 C 45.944 120.605,47.390 121.413,48.375 121.976 C 51.345 123.673,53.659 124.980,55.417 125.955 C 56.333 126.463,57.202 126.981,57.347 127.106 C 57.492 127.232,58.137 127.513,58.781 127.732 L 59.952 128.131 60.472 127.801 C 61.337 127.254,61.384 126.867,61.488 119.476 C 61.596 111.768,61.474 112.363,63.116 111.560 C 64.976 110.650,67.521 111.458,67.909 113.083 C 67.975 113.358,68.029 119.048,68.029 125.726 L 68.030 137.869 67.476 138.441 C 66.567 139.380,64.749 139.163,63.124 137.922 C 62.729 137.620,61.771 137.056,60.995 136.668 C 60.218 136.281,59.471 135.864,59.333 135.744 C 59.196 135.623,58.258 135.080,57.250 134.538 C 55.416 133.551,54.238 132.884,51.406 131.230 C 50.576 130.744,49.751 130.294,49.573 130.229 C 49.395 130.163,48.875 129.875,48.417 129.589 C 47.958 129.302,46.983 128.742,46.250 128.345 C 45.517 127.948,44.504 127.381,44.000 127.086 C 43.496 126.790,42.146 126.003,41.000 125.337 C 39.854 124.672,38.542 123.899,38.083 123.619 C 35.551 122.077,32.858 120.862,32.483 121.094 C 31.801 121.515,31.667 122.866,31.667 129.309 C 31.667 135.984,31.592 136.748,30.846 137.696 C 30.422 138.235,28.759 138.563,27.667 138.323 C 26.270 138.017,26.060 137.867,25.600 136.841 L 25.167 135.875 25.167 124.051 C 25.167 109.393,25.092 109.832,27.501 110.349 M169.369 111.507 C 169.932 111.766,170.545 112.653,170.935 113.775 C 171.441 115.232,170.471 116.647,168.083 117.933 C 167.442 118.278,166.467 118.876,165.917 119.260 C 165.367 119.645,164.518 120.161,164.030 120.406 C 163.542 120.651,162.792 121.098,162.363 121.401 C 161.934 121.703,161.118 122.202,160.549 122.509 C 159.563 123.043,158.667 124.292,158.667 125.133 C 158.667 125.439,160.293 126.743,161.711 127.575 C 162.466 128.018,163.514 128.672,164.041 129.029 C 164.568 129.385,165.430 129.912,165.958 130.200 C 171.312 133.119,172.251 134.799,169.973 137.381 C 168.666 138.864,167.188 139.003,165.731 137.779 C 165.466 137.557,164.650 137.040,163.917 136.630 C 163.183 136.219,162.208 135.642,161.750 135.346 C 158.676 133.361,157.629 132.703,156.710 132.178 C 156.139 131.851,154.996 131.147,154.171 130.614 C 153.292 130.046,152.236 129.520,151.620 129.344 L 150.569 129.043 148.818 129.910 C 147.854 130.386,146.620 131.075,146.075 131.441 C 145.529 131.807,144.596 132.388,144.000 132.733 C 142.633 133.524,140.614 134.739,139.000 135.742 C 138.313 136.169,137.159 136.886,136.437 137.335 C 134.426 138.583,133.857 138.733,132.732 138.312 C 131.097 137.700,130.235 136.369,130.391 134.696 C 130.542 133.085,130.667 132.987,138.370 128.435 C 142.449 126.025,142.970 125.490,142.469 124.227 C 142.066 123.212,141.817 122.992,139.716 121.794 C 138.763 121.251,137.240 120.326,135.417 119.182 C 134.683 118.722,133.711 118.149,133.256 117.909 C 130.153 116.269,129.524 114.437,131.257 112.083 C 132.356 110.590,135.069 110.835,137.234 112.622 C 137.500 112.842,138.250 113.288,138.901 113.613 C 139.551 113.938,140.383 114.425,140.750 114.695 C 141.117 114.965,141.979 115.507,142.667 115.899 C 144.553 116.976,146.475 118.144,147.518 118.847 C 150.060 120.563,151.560 120.601,153.902 119.012 C 155.530 117.907,157.451 116.714,158.919 115.895 C 159.598 115.517,160.393 115.006,160.685 114.760 C 160.977 114.514,161.674 114.084,162.233 113.805 C 162.792 113.525,163.491 113.116,163.785 112.895 C 164.079 112.674,165.017 112.090,165.868 111.598 L 167.415 110.704 168.166 111.001 C 168.579 111.165,169.120 111.393,169.369 111.507 M119.165 111.581 C 120.323 112.630,120.331 116.076,119.179 117.229 L 118.824 117.583 102.005 117.667 L 85.185 117.750 84.603 118.314 L 84.022 118.878 84.411 119.950 C 84.625 120.540,84.846 121.068,84.902 121.125 C 85.195 121.418,88.084 121.477,102.671 121.488 C 120.244 121.501,119.018 121.424,119.618 122.552 C 120.091 123.441,120.025 125.866,119.500 126.917 C 118.943 128.030,120.062 127.964,101.304 127.984 L 85.359 128.000 84.842 128.435 C 83.917 129.213,83.908 130.399,84.820 131.525 L 85.137 131.917 101.968 132.000 C 120.760 132.093,119.138 131.984,119.767 133.200 C 120.271 134.175,119.925 137.254,119.223 138.030 C 118.854 138.438,78.985 138.501,78.448 138.094 C 77.459 137.344,77.424 136.958,77.362 126.167 C 77.332 120.712,77.358 115.401,77.420 114.364 L 77.534 112.478 78.162 111.818 L 78.790 111.158 98.794 111.204 C 118.494 111.249,118.804 111.255,119.165 111.581 M222.917 111.609 C 225.026 112.744,225.078 115.630,223.015 117.083 L 222.305 117.583 214.916 117.667 L 207.526 117.750 207.079 118.167 C 206.265 118.924,206.263 118.945,206.171 127.833 L 206.083 136.250 205.657 137.080 C 205.104 138.154,203.955 138.588,202.092 138.426 C 199.801 138.226,199.813 138.284,199.778 127.618 C 199.752 119.976,199.725 119.203,199.457 118.713 C 198.926 117.742,199.045 117.757,191.083 117.667 L 183.750 117.583 182.953 117.176 C 181.166 116.263,180.642 113.171,182.088 112.068 C 183.301 111.143,182.333 111.183,203.083 111.218 L 222.250 111.250 222.917 111.609 M275.455 111.750 C 276.804 112.905,276.766 115.485,275.376 117.023 L 274.795 117.667 257.912 117.667 L 241.030 117.667 240.598 118.179 C 240.361 118.461,240.167 118.758,240.167 118.838 C 240.167 119.286,240.567 120.804,240.770 121.125 L 241.008 121.500 257.883 121.500 C 276.477 121.500,275.115 121.421,275.810 122.545 C 276.748 124.063,276.476 126.401,275.236 127.490 L 274.655 128.000 257.840 128.000 L 241.024 128.000 240.675 128.444 C 240.184 129.069,240.107 129.519,240.323 130.526 C 240.674 132.159,238.771 132.000,257.947 132.000 L 274.842 132.000 275.588 132.746 L 276.333 133.491 276.333 134.739 C 276.333 136.215,275.862 137.667,275.254 138.065 C 274.758 138.390,236.201 138.490,235.011 138.170 C 234.420 138.010,234.316 137.898,233.969 137.038 L 233.583 136.083 233.530 126.167 C 233.464 114.037,233.521 112.745,234.151 111.991 C 234.818 111.192,234.327 111.210,255.428 111.188 L 274.773 111.167 275.455 111.750 M322.333 111.524 C 327.704 112.997,330.855 121.579,326.367 122.510 C 323.656 123.073,322.552 122.454,321.920 120.013 C 321.283 117.554,321.988 117.667,307.270 117.667 C 294.839 117.667,294.235 117.700,293.223 118.442 C 291.736 119.531,291.341 128.305,292.690 130.279 C 293.910 132.064,293.650 132.035,307.917 131.970 C 322.254 131.904,321.112 132.166,322.146 128.714 C 322.640 127.064,322.998 126.692,324.250 126.529 C 328.617 125.961,329.889 129.850,326.844 134.463 C 325.764 136.098,325.660 136.200,324.206 137.047 C 321.995 138.335,323.184 138.244,307.750 138.298 C 292.441 138.352,292.518 138.356,290.372 137.316 C 288.055 136.193,286.719 134.619,285.977 132.142 C 285.420 130.285,285.304 120.568,285.809 118.154 C 286.652 114.127,289.206 111.766,293.167 111.351 C 295.754 111.079,321.265 111.231,322.333 111.524 M342.955 111.767 C 344.009 112.380,344.056 112.551,344.131 116.000 C 344.206 119.453,344.330 119.878,345.586 120.980 L 346.185 121.506 359.064 121.461 L 371.943 121.417 372.561 120.945 C 373.869 119.947,373.963 119.638,374.036 116.083 C 374.109 112.544,374.152 112.384,375.211 111.764 C 376.814 110.825,379.462 111.190,380.298 112.466 C 380.796 113.226,380.824 135.207,380.329 136.428 C 379.682 138.020,378.617 138.586,376.759 138.323 C 374.568 138.012,374.004 136.998,373.993 133.348 C 373.982 129.688,373.775 129.075,372.298 128.317 C 371.471 127.893,346.669 127.816,345.867 128.235 C 344.505 128.946,344.167 129.991,344.167 133.478 C 344.167 137.225,343.320 138.411,340.720 138.305 C 339.076 138.239,338.629 137.971,337.961 136.650 L 337.506 135.750 337.515 125.000 C 337.525 113.326,337.561 112.626,338.181 112.150 C 339.598 111.060,341.480 110.909,342.955 111.767 " stroke="none" fill="#b6c5cd" fill-rule="evenodd"></path></g></svg>